<svg xmlns="http://www.w3.org/2000/svg" xmlns:xlink="http://www.w3.org/1999/xlink" id="Layer_1" x="0px" y="0px" viewBox="0 0 1080 1080" style="enable-background:new 0 0 1080 1080;" xml:space="preserve">
<style type="text/css">
	.st0{fill:#317C68;}
</style>
<g id="yvgoIX_00000101070475089771105400000003018315536132944531_">
	<g>
		<path class="st0" d="M190.31,692.37c-0.01-60.62-0.9-121.27,0.51-181.86c0.45-19.37-6.52-27.72-24.33-27.92    c-23.4-0.25-34.67-8.96-32.43-34.59c1.81-20.76-9.45-33.5-31.64-36.96c-39.09-6.09-52.82-22.75-52.9-61.8    c-0.15-76.4-0.18-152.8,0.02-229.2c0.09-34.28,15.96-50.53,49.88-50.69c68.1-0.31,136.19-0.27,204.29-0.03    c32.41,0.11,51.09,15.23,51.68,47.32c1.46,79.69,1.42,159.45,0.1,239.15c-0.52,31.66-19.75,51.63-50.7,54.7    c-26.74,2.65-36.88,17.38-35.45,41.25c1.31,21.86-8.42,30.15-28.71,30.22c-21.14,0.08-28.96,8.94-28.71,31.89    c1.32,121.23,0.43,242.48,0.73,363.73c0.11,46.75,38.39,75.73,77.31,58.5c24.56-10.87,34.51-31.06,34.39-58    c-0.49-110.45-0.5-220.9-0.07-331.35c0.23-60.18,53.66-98.43,106.91-76.49c37.2,15.33,49.23,46.8,49.34,84.42    c0.14,48.17-0.1,96.33,0.19,144.5c0.05,7.94-3.26,17.35,4.36,23.45c21.54,17.24,17.1,37.22,7.04,58.03    c-8.03,16.62-13.37,33.66-11.85,52.6c0.67,8.34-0.72,17.83-12.74,16.92c-11.16-0.85-9.7-10.52-8.77-17.25    c3.07-22.21-9.43-39.86-16.17-59.11c-6.49-18.54-8.69-35.87,9.09-49.37c8.19-6.22,6.7-14.58,6.72-22.63    c0.13-50.66,0.38-101.32-0.05-151.97c-0.32-37.34-23.59-63.12-55.97-63.28c-32.91-0.16-55.5,25.1-55.54,62.7    c-0.11,110.45,0.27,220.9-0.2,331.35c-0.23,53.38-38.2,86.08-91.03,79.93c-38.85-4.52-64.82-37.22-65.18-83.78    C189.95,815.28,190.32,753.83,190.31,692.37z M69.72,235.43c0,37.34-0.22,74.68,0.09,112.01c0.17,20.93,6.87,37.32,30.74,41.26    c38.3,6.32,49.51,17.41,56.22,54.64c1.13,6.24-1.23,14.5,7.44,16.55c25.34,6.01,50.84,6.14,76.09-0.56    c9.68-2.57,7.73-11.36,8.44-18.58c3.06-31.12,18.55-47.76,49.67-51.69c9.44-1.19,18.05-3.13,24.8-9.72    c6.71-6.55,12.08-14.8,9.5-24.35c-2.99-11.05-13.49-7.43-21.15-7.59c-22.39-0.46-44.8-0.1-67.21-0.23    c-8.1-0.04-18.84,1.39-18.27-10.58c0.45-9.57,10.4-9.09,17.7-9.19c22.4-0.31,44.82-0.79,67.2-0.12    c16.46,0.49,23.64-4.66,23.38-22.71c-0.25-17.05-5.01-23.81-22.7-22.8c-22.33,1.28-44.79,0.26-67.19,0.31    c-8.43,0.02-18.71,0.54-18.77-10.58c-0.05-10.22,9.38-12.06,18.33-12.03c23.23,0.07,46.52-0.99,69.68,0.3    c17.47,0.98,20.26-6.98,20.53-22.07c0.29-16.3-5.1-22-21.42-21.25c-24.01,1.1-48.12,0.46-72.17,0.05    c-7.94-0.14-15.52-3.56-14.81-12.87c0.61-8.05,7.81-9.38,14.98-9.34c22.4,0.11,44.82-0.47,67.2,0.17    c15.6,0.45,26.07-0.1,26.59-21.49c0.56-22.92-11.02-23.7-27.57-23.42c-22.39,0.39-44.8-0.01-67.19-0.58    c-6.63-0.17-14.41-1.75-14.03-10.51c0.37-8.61,7.74-9.34,14.72-9.34c24.06,0,48.13,0.18,72.19-0.23c7.7-0.13,17.95,2.86,20.3-8.86    c2.17-10.85-2.61-19.68-11.7-25.47c-7.13-4.54-15.57-5.35-23.97-5.35c-63.89,0.01-127.78-0.42-191.67,0.21    c-27.2,0.27-35.37,8.97-35.84,36.47C69.23,162.4,69.7,198.92,69.72,235.43z"></path>
		<path class="st0" d="M776.22,970.88c-68.11,0-136.21-0.25-204.31,0.1c-33.6,0.18-66.16-4.84-97.04-18    c-72.09-30.72-104.35-89.39-110.17-164.02c-5.44-69.73,14.29-134.46,46.48-195.65c3.26-6.19,6.05-19,17.01-11.92    c8.8,5.68,2.7,14.93-1.1,22.26c-21.48,41.51-36.43,85.02-42.36,131.62c-14.08,110.63,37.85,213.45,178.4,216.29    c141.97,2.87,284.04,0.5,426.05,1.27c19.98,0.11,23.95-5.07,18.79-24.36c-10.97-40.97-34.93-71.61-70.7-92.23    c-98.81-56.97-199.95-57.15-302.05-8.78c-14.95,7.08-29.21,15.66-43.64,23.82c-5.88,3.32-12.68,7.97-17.59,1.4    c-6.11-8.15,0.7-13.25,7.52-17.48c64.16-39.79,133.16-62.82,209.43-59.47c18.12,0.8,36.53,0.25,54.28,5.95    c12.93,4.15,22.17-1.45,29.39-12.41c31.98-48.51,45.13-102.66,47.6-159.82c1.03-23.88-13.87-9.56-20.77-6.56    c-66.45,28.79-133.39,31.09-200.5,3.82c-63.55-25.82-108.7-69.18-123.73-138.49c-3.99-18.39-11.35-19.04-24.33-8.26    c-12.76,10.6-26,20.62-38.9,31.05c-5.49,4.44-11.43,8.55-17.45,2.31c-6.68-6.92-0.48-11.93,4.36-16.51    c17.55-16.64,36.92-30.92,57.77-43.08c9.1-5.31,14.05-11.49,15.97-22.82c3.71-21.99,10.12-43.63,22.76-62.61    c5.48-8.22,5.28-15.83,2.93-25.62c-9.38-39.12-5.91-77.47,12.86-113.53c17.98-34.52,37.96-38.84,70.23-16.29    c16.55,11.57,31.27,25.34,40.84,42.97c6.98,12.87,16.12,15.36,28.62,12.63c28.81-6.29,57.61-6.35,86.39-0.06    c12.61,2.75,21.33-0.06,28.7-12.28c12.55-20.79,29.6-37.98,51.35-49.64c24.54-13.15,39.92-9.59,54.71,13.85    c23.41,37.1,26.74,77.93,18.45,119.81c-2.27,11.46-1.39,20.4,3.93,30.58c40.5,77.48,27.09,155.22-37.55,213.9    c-11.91,10.82-17.59,21.2-17.88,37.91c-1.09,62.26-14.75,121.66-49.02,174.69c-7.16,11.08-5.07,15.38,6.09,19.48    c23.4,8.61,45.72,19.42,65.93,34.3c37.34,27.5,58.75,64.36,65.75,110.01c3.25,21.17-1.79,31.02-26.78,30.47    C927.4,969.82,851.8,970.88,776.22,970.88z M802.89,262.4c-59.74-0.01-112.63,19.11-151.94,52.2    c-76.72,64.58-79.4,166.21-6.18,234.9c81.33,76.31,223.29,75.74,304.14-1.22c69.68-66.32,69.27-162.96-1.25-228.35    C904.77,280.17,852.65,264.27,802.89,262.4z M977.41,282.46c-0.19,0-0.38,0-0.57,0c0-6.61,1.19-13.47-0.21-19.77    c-5.32-23.96-7.35-56.13-32.36-62.24c-23.44-5.72-40.31,20.86-55.74,39.12c-1.06,1.25-2.11,2.58-2.86,4.02    c-2.8,5.38-9.49,10.6,0.26,16.17c8.85,5.05,13.34,2.1,16.9-6.6c5.03-12.29,11.91-23.69,21.6-32.9c3.25-3.08,7.67-7.32,13.06-3.2    c5.78,4.41,5.19,9.87,1.41,15.23c-2.85,4.04-6.09,7.8-9.13,11.7c-13.75,17.66-16.86,32.95,8.21,43.78    c6.6,2.85,11.56,9.27,17.74,13.35c5.69,3.76,8.94,14.46,17.74,9.59c6.29-3.48,3.06-12.05,3.88-18.36    C977.76,289.11,977.41,285.76,977.41,282.46z M615,283.51c1.26,7.04-3.83,21.67,4.83,26.73c9.25,5.4,15.09-9.44,23.16-14.32    c4.22-2.56,7.61-6.78,12.05-8.64c26.21-10.97,20.4-26.85,7.26-44.09c-2-2.63-4.21-5.1-6.13-7.79c-3.63-5.08-10.52-9.84-2.96-16.7    c8.63-7.83,14.16,0.06,18.12,5.38c7.34,9.85,13.71,20.56,19.32,31.51c4.33,8.44,9.3,7.29,16.08,4.04    c8.61-4.12,4.46-9.1,1.32-13.88c-10.57-16.1-24.18-29.01-39.98-40.1c-15.74-11.06-26.78-8.71-35.91,8.26    C620.97,234.7,614.54,256.53,615,283.51z"></path>
		<path class="st0" d="M835.99,479.74c0.32,9.97-7.17,20.18-16.93,27.92c-17.1,13.57-11.24,22.32,4.22,31.05    c6.69,3.78,22.43,1.35,16.23,15.52c-5.98,13.66-19.25,5.3-25.43,0.55c-13.84-10.65-24.2-7.63-37.27,0.77    c-7.29,4.69-20.01,11.64-25.2-2.34c-4.57-12.28,9.33-10.72,15.71-13.89c17.2-8.53,23.65-17.58,5.33-32.23    c-11.46-9.17-18.4-21.6-15.6-36.96c6.05-33.17,32.92-20.03,52.02-21.82C827.25,446.62,836.13,457.81,835.99,479.74z     M798.11,470.36c-7.23,1.84-20.92-13.13-21.55,6.03c-0.38,11.67,8.36,23.13,21.45,21.77c10.77-1.12,19.29-11.55,18.62-22.76    C815.81,461.85,805.93,467.32,798.11,470.36z"></path>
		<path class="st0" d="M736.94,405.62c-2.16,7.47,3.83,19.52-8.37,20.17c-14.35,0.76-10.37-12.15-10.26-20.3    c0.11-8.07-4.53-21.28,9.57-20.93C742.19,384.91,733.79,398.61,736.94,405.62z"></path>
		<path class="st0" d="M875.27,404.68c-0.9,8.43,3.24,20.79-10.39,21.11c-13.46,0.32-8.44-12.2-8.15-18.91    c0.33-7.76-6.04-20.99,7.36-22.29C877.79,383.27,874.6,396.09,875.27,404.68z"></path>
	</g>
</g>
</svg>