<svg xmlns="http://www.w3.org/2000/svg" xmlns:xlink="http://www.w3.org/1999/xlink" id="Layer_1" x="0px" y="0px" viewBox="0 0 1080 1080" style="enable-background:new 0 0 1080 1080;" xml:space="preserve">
<style type="text/css">
	.st0{fill:#317C68;}
</style>
<g id="PNjdPh_00000029758034111040810840000003360101589092678828_">
	<g>
		<path class="st0" d="M311.09,438.3c77.8,0.01,155.59-0.04,233.39,0.09c8.59,0.01,16.62-1.17,24.72-4.35    c32.91-12.89,65.97-25.44,99.74-35.9c7.52-2.33,8.65-5.1,5.87-12.49c-12.42-33.08-13.56-66.85-4.44-100.99    c2.38-8.92-0.57-12.13-9.76-11.07c-4.59,0.53-8.33,2.83-11.88,5.53c-9.67,7.38-19.3,14.8-28.96,22.2    c-8.79,6.73-17.68,13.33-27.86,17.86c-16.69,7.42-32.32-1.22-35.05-19.4c-1.62-10.79-0.2-21.32,3.68-31.49    c14.34-37.63,37.22-69.17,67.6-95.52c15.66-13.59,33.15-16.29,52.66-11.26c18.31,4.72,34.11,13.88,47.55,26.92    c5.43,5.27,9.38,6.5,16.89,2.8c40.45-19.93,81.07-19.27,120.85,2.12c6.62,3.56,10.31,3.6,15.97-1.82    c18.01-17.23,38.9-28.87,64.65-30.07c10.8-0.5,20.6,1.76,29.08,8.29c36.28,27.94,62.25,63.37,76.72,106.97    c2.71,8.16,3.07,16.67,1.85,25.16c-2.62,18.14-18.2,26.95-34.93,19.47c-16.68-7.46-29.93-20.06-44.52-30.64    c-5.96-4.32-11.8-8.87-18.03-12.76c-5.9-3.68-12.3-2.7-17.75,0.96c-4.99,3.35-1.29,8.09-0.43,12.08    c11.01,50.99,1.02,97.21-31.09,138.51c-1.69,2.17-5.52,3.91-3.88,7.17c1.55,3.07,5.35,1.52,8.08,1.53    c31.71,0.12,63.42,0.05,95.12,0.08c24.82,0.02,35.36,10.69,35.48,35.84c0.01,2.58,0.12,5.16,0.03,7.74    c-0.65,19.02-12.67,32.02-31.47,30.73c-14.65-1.01-20.86,4.36-26.39,17.6c-21.42,51.33-44.29,102.06-66.74,152.95    c-11.7,26.53-28.69,48.97-53.03,65.1c-6.06,4.01-5.9,8.36-4.71,14.06c3.98,19.11,7.82,38.24,11.72,57.37    c3.05,15.01-5.28,26.41-21.84,29.88c-17.66,3.7-29.53-2.87-32.89-18.5c-4.03-18.72-8.05-37.45-11.59-56.27    c-1.02-5.42-3.11-7.68-8.62-7.28c-4.77,0.35-9.58,0.07-14.37,0.07c-145.64,0.01-291.27,0.11-436.91-0.17    c-8.27-0.02-11.58,2.03-12.96,10.31c-3.03,18.15-7.09,36.13-10.85,54.16c-3,14.38-14.12,20.65-31.37,17.88    c-16.17-2.6-26.07-13.57-23.56-27.53c3.84-21.38,8.28-42.65,12.95-63.86c1.82-8.26,1.12-14.12-6.47-19.88    c-13.67-10.38-22.87-24.32-29.69-40.43c-24.97-59.04-50.86-117.68-76.12-176.6c-2.71-6.32-5.95-8.75-13.01-8.63    c-27.28,0.43-54.56,0.21-81.85,0.12c-20.81-0.07-31.85-11.17-32.2-32.16c-0.07-4.05-0.08-8.11,0.01-12.17    c0.42-18.86,11.53-29.86,30.56-30.3c4.05-0.09,8.11-0.06,12.17-0.06C159.18,438.29,235.13,438.29,311.09,438.3z M569.96,752.2    c72.97,0,145.94-0.11,218.91,0.15c9.01,0.03,12.12-1.23,9.95-11.61c-15.08-72.05-29.62-144.22-43.77-216.47    c-1.81-9.25-5.4-11.45-14.38-11.43c-114.25,0.32-228.49,0.36-342.74-0.06c-9.67-0.04-12.36,3.38-14.05,11.94    c-14.08,71.13-28.56,142.18-42.95,213.25c-2.86,14.15-2.92,14.21,11.22,14.22C424.75,752.21,497.36,752.2,569.96,752.2z     M809.54,434.95c0,5.84,0.04,14.32-0.01,22.8c-0.03,5.22,1.97,6.89,7.49,6.18c16.73-2.15,32.24-7.48,46.54-16.32    c74.6-46.15,86.11-156.79,22.92-220.1c-44.86-44.95-113.5-46.87-160.78-4.51c-47.03,42.14-59.69,114.88-29.74,172.3    c18.6,35.64,46.89,59.02,86.76,67.54c8.02,1.71,12.23,0.8,11.57-9.21c-0.89-13.58-0.6-27.28-0.09-40.9    c0.3-8.03-1.7-11.72-10.62-12.55c-13.71-1.28-26.65-5.98-36.96-15.77c-11.75-11.15-11.89-25.49-0.64-37.15    c4.69-4.86,10.35-8.34,16.6-10.69c26.27-9.85,52.6-9.72,78.85,0.06c5.55,2.07,10.56,5.21,14.98,9.21    c12.99,11.73,13.01,27.74,0.09,39.4c-6.43,5.81-14.41,8.6-22.12,12.14c-7.9,3.62-20.12-1.11-23.76,7.61    C807.32,412.86,809.7,423.11,809.54,434.95z M541.18,497.53c0,0.01,0,0.02,0,0.03c154.49,0,308.98,0.01,463.47-0.01    c19.13,0,22.02-3.06,21.99-22.84c-0.02-17.7-3.43-21.01-21.48-21.02c-37.24-0.01-74.48,0.09-111.72-0.17    c-7.29-0.05-13.25,1.84-19.55,5.68c-46.44,28.35-93.37,28.41-139.93,0.39c-7.04-4.24-13.67-6.02-21.65-6.02    c-208.69,0.13-417.39,0.1-626.08,0.11c-5.53,0-11.06,0.03-16.59,0.06c-5.73,0.02-10.02,2.7-12.43,7.73    c-9.18,19.2,0.93,36.05,21.6,36.05C232.93,497.54,387.05,497.53,541.18,497.53z M892.15,513.01c-24.3,0-48.6,0.16-72.9-0.1    c-6.43-0.07-9.56,1.05-8.02,8.54c14.08,68.82,27.99,137.67,41.85,206.54c1.37,6.78,3.68,7.8,9.3,3.34    c16.78-13.3,30.02-29.58,38.7-48.93c23.95-53.37,47.09-107.1,70.76-160.59c2.99-6.75,2.18-9.04-5.68-8.93    C941.5,513.21,916.82,513,892.15,513.01z M254.93,513.01c-20.25,0-40.5-0.01-60.75,0.01c-13.54,0.01-13.61,0.07-8.34,12.23    c25.17,58.05,50.46,116.05,75.49,174.16c3.76,8.72,9.51,15.66,16.14,22.1c2.01,1.96,3.67,5.43,7,4.44    c3.45-1.03,2.54-4.95,3.09-7.63c13.32-65.21,26.36-130.48,39.95-195.63c1.81-8.68-1.01-9.91-8.51-9.8    C297.64,513.23,276.28,513.01,254.93,513.01z M948.75,176.85c-22.53,0.83-40.55,11.46-56.83,26.13c-4.72,4.25-2.1,6.48,1.17,9.48    c14.28,13.08,25.66,28.4,33.92,45.9c2.23,4.72,4.2,7.13,9.86,4.59c11.92-5.35,22.91-2.73,33.12,4.93    c14.72,11.04,29.3,22.3,44.46,32.71c5.89,4.05,12.45,12.33,20.38,6.11c7.55-5.91,4.89-15.44,3.42-23.81    c-0.25-1.44-0.68-2.87-1.16-4.26c-13.75-39.37-37.98-71.1-70.66-96.6C961.35,178.07,955.4,176.12,948.75,176.85z M660.62,174.42    c-6.73-1.3-14.2,3.54-21.07,9.31c-27.56,23.11-48.66,51.12-62.63,84.32c-2.99,7.11-5.13,14.59-5.27,22.47    c-0.1,5.72,0.29,11.47,5.5,14.82c5.36,3.44,9.84-0.66,14.13-3.23c17.77-10.61,32.94-24.78,49.9-36.53    c9.56-6.63,19.49-10.44,31.03-6.02c4.65,1.78,7.41,0.69,9.65-3.91c8.81-18.13,21.03-33.69,36.47-46.65c3.7-3.1,4.01-5.62,0.3-8.87    C702.78,186.22,685.43,175.68,660.62,174.42z M298.28,834.84c5.81,0.95,7.81-3.13,9.09-9.57    c12.92-64.64,26.12-129.23,39.27-193.83c7.2-35.37,14.57-70.71,21.45-106.14c0.71-3.67,4.73-8.79-0.82-11.84    c-10.01-5.5-22.6,1.1-24.92,12.63c-19.62,97.47-39.25,194.95-58.88,292.42C281.18,829.84,285.19,834.78,298.28,834.84z     M781.49,513.43c-11.3-2.69-14.14,1.42-10.73,12.01c2.35,7.31,3.18,15.1,4.71,22.68c18.57,91.93,37.14,183.86,55.74,275.78    c2.11,10.43,6.23,12.99,16.19,10.28c7.25-1.98,10.71-5.11,8.84-14.18c-20.28-97.96-40.16-196.01-59.71-294.12    C794.64,516.39,792.44,510.15,781.49,513.43z M802.3,386c13.81,0.48,27.83-1.84,40.39-9.67c10.42-6.49,10.41-14.39,0.38-21.47    c-18.96-13.39-63.18-13.34-82.25,0.09c-10.1,7.12-10.02,14.59,0.62,21.46C773.61,384.27,787.33,386.26,802.3,386z M609.47,434.83    c0.2,0.92,0.4,1.84,0.59,2.77c31.23,0,62.46,0,95.31,0c-6.72-9.45-12.57-17.68-18.43-25.9c-1.95-2.73-4.41-1.83-6.91-0.97    C656.52,418.78,632.99,426.8,609.47,434.83z"></path>
		<path class="st0" d="M408.68,416.03c-22.93-0.2-41.03-18.79-40.8-41.89c0.23-22.86,19.14-41.19,42.08-40.8    c22.16,0.37,40.54,19.27,40.34,41.48C450.09,397.8,431.48,416.23,408.68,416.03z M383.39,375.24    c0.24,14.32,12.29,25.93,26.4,25.42c13.7-0.49,25.01-12.12,25.13-25.83c0.12-14.26-11.55-25.74-26.06-25.63    C394.18,349.32,383.14,360.6,383.39,375.24z"></path>
		<path class="st0" d="M583.14,378.28c0.19,23-18.26,41.91-40.89,41.93c-22.92,0.02-41.28-18.45-41.26-41.52    c0.02-22.83,18.82-41.61,41.45-41.39C564.74,337.51,582.96,355.85,583.14,378.28z M516.4,377.73    c-0.63,14.21,10.65,26.45,24.89,27.03c13.38,0.54,25.78-10.84,26.53-24.34c0.8-14.5-9.98-26.6-24.37-27.36    C529.11,352.31,517.03,363.32,516.4,377.73z"></path>
		<path class="st0" d="M306.41,237.34c15.28-0.29,28.34,12.21,28.84,27.59c0.52,16.02-12.1,29.26-28,29.39    c-15.57,0.13-28.5-12.13-29.02-27.49C277.7,251.09,290.56,237.63,306.41,237.34z M319.9,265.9c-0.73-8.23-5.48-12.89-12.84-12.93    c-7.94-0.04-12.97,4.88-13.18,13.25c-0.17,7.07,6.86,13.59,13.83,12.66C315.22,277.87,319.35,273.22,319.9,265.9z"></path>
		<path class="st0" d="M443.13,275.66c0.21-16.29,12.84-28.42,29.18-28.02c15.65,0.38,27.77,12.98,27.54,28.61    c-0.24,15.65-12.65,28.19-28.07,28.35C456.08,304.76,442.93,291.48,443.13,275.66z M471.5,263.04    c-8.34,0.8-12.89,5.16-12.63,13.51c0.24,7.96,5.15,12.04,12.7,12.04c7.66,0,12.38-4.43,12.56-12.22    C484.32,268.06,479.55,263.78,471.5,263.04z"></path>
		<path class="st0" d="M572.43,189.81c0.14,15.23-11.84,27.2-27.13,27.12c-14.83-0.08-26.56-11.61-26.84-26.39    c-0.3-15.19,11.61-27.69,26.6-27.92C560.02,162.39,572.29,174.58,572.43,189.81z M544.53,178.52    c-6.12,0.78-10.41,4.17-10.41,11.22c0,7.49,4.36,11.83,11.63,11.68c7.37-0.14,11.39-4.91,10.98-12.28    C556.36,182.23,552,178.82,544.53,178.52z"></path>
		<path class="st0" d="M1005.9,395.34c-0.18,15.04-12.88,27.35-27.7,26.88c-14.29-0.46-26.55-13-26.61-27.19    c-0.06-14.74,12.73-27.47,27.45-27.29C994.2,367.91,1006.08,380.13,1005.9,395.34z M979.23,383.07    c-6.89,1.26-11.96,4.35-11.73,12.13c0.21,7,4.53,11.06,11.19,11.13c7.26,0.08,11.82-4.32,11.73-11.76    C990.35,387.65,985.62,384.33,979.23,383.07z"></path>
		<path class="st0" d="M758.39,321.52c-14.39-0.21-25.95-12-25.67-26.18c0.29-14.55,11.63-25.73,26.12-25.72    c15.08,0,26.25,11.48,25.99,26.7C784.59,310.64,772.95,321.73,758.39,321.52z M758.8,306.11c6.18-0.49,10.22-3.86,10.38-10.23    c0.15-6.29-3.29-10.52-9.96-10.64c-6.47-0.11-10.41,3.37-10.57,9.96C748.48,301.7,752.19,305.19,758.8,306.11z"></path>
		<path class="st0" d="M875.55,296.24c-0.19,14.42-11.65,25.37-26.38,25.22c-14.42-0.15-25.76-11.66-25.64-26.02    c0.12-14.86,12.05-26.24,27.01-25.78C865.11,270.11,875.75,281.42,875.55,296.24z M839.2,295.61c0.55,6.56,3.96,10.39,10.52,10.35    c6.61-0.04,10.24-4.07,10.25-10.45c0.01-6.49-3.85-10.29-10.4-10.25C842.97,285.29,839.72,289.28,839.2,295.61z"></path>
	</g>
</g>
</svg>