<?xml version="1.0" ?><!-- Uploaded to: SVG Repo, www.svgrepo.com, Generator: SVG Repo Mixer Tools -->
<svg width="800px" height="800px" viewBox="0 0 64 64" id="filled" xmlns="http://www.w3.org/2000/svg"><defs><style>.cls-1{fill:#ffffff;}.cls-1,.cls-2,.cls-3{stroke:#000000;stroke-linecap:round;stroke-linejoin:round;stroke-width:2px;}.cls-2{fill:#bdc3c7;}.cls-3{fill:none;}</style></defs><title/><path class="cls-1" d="M62,32a5.9737,5.9737,0,0,1-1.2085,3.6119A23.8682,23.8682,0,0,0,56,50h0a6,6,0,0,1-6,6H18a6,6,0,0,1-6-6h0A23.8682,23.8682,0,0,0,7.2085,35.6119,5.9737,5.9737,0,0,1,6,32Z"/><rect class="cls-2" height="4" transform="translate(92 116) rotate(-180)" width="4" x="44" y="56"/><rect class="cls-2" height="4" width="4" x="20" y="56"/><path class="cls-3" d="M47,12V8a4,4,0,0,1,4-4h0a4,4,0,0,1,4,4V32"/><path class="cls-2" d="M43,16h8a4,4,0,0,0-4-4h0a3.74,3.74,0,0,0-4,4Z"/></svg>