<?xml version="1.0" encoding="iso-8859-1"?>
<!-- Uploaded to: SVG Repo, www.svgrepo.com, Generator: SVG Repo Mixer Tools -->
<svg fill="#000000" height="800px" width="800px" version="1.1" id="Layer_1" xmlns="http://www.w3.org/2000/svg" xmlns:xlink="http://www.w3.org/1999/xlink" 
	 viewBox="0 0 512 512" xml:space="preserve">
<g>
	<g>
		<path d="M329.493,276.389c-3.253-3.255-8.53-3.255-11.785,0c-11.818,11.817-31.045,11.817-42.863,0
			c-3.256-3.256-8.532-3.255-11.787,0c-3.254,3.254-3.254,8.531,0,11.785c9.158,9.158,21.187,13.737,33.217,13.737
			s24.058-4.579,33.217-13.737C332.748,284.919,332.748,279.644,329.493,276.389z"/>
	</g>
</g>
<g>
	<g>
		<path d="M246.811,202.227c-4.602,0-8.333,3.731-8.333,8.333v13.329c0,4.602,3.731,8.333,8.333,8.333
			c4.602,0,8.333-3.731,8.333-8.333V210.56C255.144,205.958,251.413,202.227,246.811,202.227z"/>
	</g>
</g>
<g>
	<g>
		<path d="M370.685,172.445c-13.753-13.755-36.135-13.756-49.891,0c-3.254,3.255-3.254,8.531,0,11.785
			c3.254,3.255,8.531,3.255,11.785,0c3.516-3.516,8.189-5.451,13.16-5.451c4.971,0,9.645,1.936,13.16,5.451
			c1.628,1.628,3.76,2.441,5.893,2.441c2.132,0,4.266-0.813,5.892-2.441C373.939,180.976,373.939,175.699,370.685,172.445z"/>
	</g>
</g>
<g>
	<g>
		<path d="M271.756,172.445c-13.753-13.756-36.135-13.756-49.89,0c-3.254,3.255-3.254,8.531,0,11.785
			c3.255,3.255,8.531,3.255,11.785,0c3.516-3.516,8.189-5.451,13.16-5.451c4.971,0,9.646,1.936,13.16,5.451
			c1.627,1.627,3.76,2.441,5.892,2.441c2.132,0,4.266-0.813,5.892-2.441C275.01,180.976,275.01,175.699,271.756,172.445z"/>
	</g>
</g>
<g>
	<g>
		<path d="M345.74,202.227c-4.602,0-8.333,3.731-8.333,8.333v13.329c0,4.602,3.731,8.333,8.333,8.333s8.333-3.731,8.333-8.333
			V210.56C354.073,205.958,350.342,202.227,345.74,202.227z"/>
	</g>
</g>
<g>
	<g>
		<path d="M212.265,484.22H183.5v-96.546c0-18.764,9.592-35.789,25.658-45.544c3.935-2.389,5.187-7.515,2.799-11.448
			c-2.389-3.934-7.513-5.187-11.448-2.799c-21.087,12.802-33.676,35.154-33.676,59.791v104.879c0,4.602,3.731,8.333,8.333,8.333
			h37.098c4.602,0,8.333-3.731,8.333-8.333C220.598,487.951,216.867,484.22,212.265,484.22z"/>
	</g>
</g>
<g>
	<g>
		<path d="M417.391,484.22H304.612V377.604c0-4.602-3.731-8.333-8.333-8.333s-8.333,3.731-8.333,8.333V484.22h-47.903
			c-4.602,0-8.333,3.731-8.333,8.333c0,4.602,3.731,8.333,8.333,8.333h177.349c4.602,0,8.333-3.731,8.333-8.333
			C425.724,487.951,421.994,484.22,417.391,484.22z"/>
	</g>
</g>
<g>
	<g>
		<path d="M405.815,338.828c-4.116-4.211-8.75-7.893-13.776-10.945c-3.935-2.389-9.061-1.136-11.449,2.798
			c-2.389,3.935-1.136,9.06,2.798,11.448c3.832,2.327,7.368,5.136,10.508,8.348c1.633,1.67,3.796,2.509,5.96,2.509
			c2.101,0,4.203-0.789,5.825-2.374C408.972,347.394,409.033,342.118,405.815,338.828z"/>
	</g>
</g>
<g>
	<g>
		<path d="M309.054,190.005c-4.602,0-8.333,3.731-8.333,8.333v39.445c0,2.451-1.993,4.445-4.444,4.445
			c-2.451,0-4.445-1.993-4.445-4.445v-39.445c0-4.602-3.731-8.333-8.333-8.333c-4.602,0-8.333,3.731-8.333,8.333v39.445
			c0,11.641,9.47,21.111,21.111,21.111s21.111-9.47,21.111-21.111v-39.445C317.388,193.736,313.656,190.005,309.054,190.005z"/>
	</g>
</g>
<g>
	<g>
		<path d="M236.673,387.816v-40.032c0-4.602-3.731-8.333-8.333-8.333s-8.333,3.731-8.333,8.333v40.032
			c-13.12,3.653-22.778,15.7-22.778,29.969v38.334c0,4.602,3.731,8.333,8.333,8.333h9.445c4.602,0,8.333-3.731,8.333-8.333
			c0-4.602-3.731-8.333-8.333-8.333h-1.111v-30c0-7.965,6.479-14.445,14.445-14.445c7.965,0,14.445,6.48,14.445,14.445v30.019
			c-4.343,0.286-7.778,3.899-7.778,8.315c0,4.602,3.731,8.333,8.333,8.333h7.778c4.602,0,8.333-3.731,8.333-8.333v-38.334
			C259.451,403.516,249.793,391.469,236.673,387.816z"/>
	</g>
</g>
<g>
	<g>
		<path d="M313.313,55.015h-8.703v-8.703c0-4.602-3.731-8.333-8.333-8.333s-8.333,3.731-8.333,8.333v8.703h-8.703
			c-4.602,0-8.333,3.731-8.333,8.333c0,4.602,3.731,8.333,8.333,8.333h8.703v8.703c0,4.602,3.731,8.333,8.333,8.333
			s8.333-3.731,8.333-8.333v-8.703h8.703c4.602,0,8.333-3.731,8.333-8.333C321.646,58.746,317.915,55.015,313.313,55.015z"/>
	</g>
</g>
<g>
	<g>
		<path d="M446.487,203.148c0-17.62-13.378-32.17-30.513-34.046l-1.927-19.932c-1.509-15.64-6.003-30.519-13.349-44.265V19.447
			c0-4.602-3.731-8.333-8.333-8.333H200.186c-4.602,0-8.333,3.731-8.333,8.333v12.592c0,4.602,3.731,8.333,8.333,8.333
			c4.602,0,8.333-3.731,8.333-8.333V27.78h175.512v71.138H279.266c-4.602,0-8.333,3.731-8.333,8.333s3.731,8.333,8.333,8.333
			h108.191c5.446,11.003,8.807,22.817,10,35.188l7.911,81.857c2.57,26.594-9.262,52.871-30.881,68.58l-45.612,33.145
			c-19.496,14.166-45.698,14.166-65.204,0l-45.612-33.145c-21.61-15.701-33.444-41.981-30.882-68.58l6.138-63.506
			c0.442-4.581-2.912-8.655-7.493-9.097c-4.587-0.434-8.653,2.912-9.097,7.493l-0.153,1.583
			c-17.128,1.877-30.502,16.426-30.502,34.046c0.001,15.415,10.11,28.47,24.191,32.763c-1.306,30.753,12.961,60.586,38,78.78
			l45.614,33.146c12.683,9.211,27.543,13.817,42.402,13.817c14.859,0,29.718-4.607,42.395-13.818l45.612-33.145
			c25.048-18.2,39.316-48.033,38.003-78.78C436.375,231.62,446.487,218.563,446.487,203.148z M171.796,218.541
			c-5.418-3.001-9.057-8.767-9.057-15.39c0-7.805,5.112-14.428,12.16-16.722L171.796,218.541z M420.752,218.543l-3.104-32.116
			c7.056,2.292,12.172,8.918,12.172,16.722C429.82,209.775,426.177,215.543,420.752,218.543z"/>
	</g>
</g>
<g>
	<g>
		<path d="M208.444,45.586c-31.245,0-56.665,25.42-56.665,56.665c0,31.245,25.42,56.665,56.665,56.665
			c31.246,0,56.665-25.419,56.665-56.665S239.69,45.586,208.444,45.586z M208.444,142.25c-22.055,0-39.998-17.942-39.998-39.998
			s17.944-39.998,39.998-39.998c22.056,0,39.998,17.944,39.998,39.998S230.5,142.25,208.444,142.25z"/>
	</g>
</g>
<g>
	<g>
		<path d="M153.728,233.566c-13.129-5.359-27.999-4.935-40.802,1.161c-13.836,6.588-23.821,18.912-27.398,33.814l-3.768,15.698
			H30.263C13.576,284.239,0,297.815,0,314.502v11.797c0,37.46,30.477,67.938,67.938,67.938h75.973c4.602,0,8.333-3.731,8.333-8.333
			s-3.731-8.333-8.333-8.333H67.938c-25.433,0-46.589-18.617-50.583-42.937h4.681c17.257,0,31.297-14.039,31.297-31.297v-2.43
			h34.998c3.853,0,7.203-2.641,8.103-6.389l5.301-22.087c2.396-9.983,9.087-18.241,18.357-22.656
			c8.578-4.084,18.542-4.368,27.337-0.778c4.26,1.738,9.125-0.304,10.865-4.566C160.032,240.171,157.989,235.306,153.728,233.566z
			 M22.036,317.966h-5.369v-3.463c0-7.497,6.099-13.596,13.596-13.596h6.402v2.429h0.001
			C36.666,311.403,30.104,317.966,22.036,317.966z"/>
	</g>
</g>
<g>
	<g>
		<path d="M123.329,267.573c-4.602,0-8.333,3.731-8.333,8.333v18.332c0,4.602,3.731,8.333,8.333,8.333
			c4.602,0,8.333-3.731,8.333-8.333v-18.332C131.663,271.305,127.932,267.573,123.329,267.573z"/>
	</g>
</g>
<g>
	<g>
		<path d="M509.61,359.462c-2.216-2.253-5.513-3.059-8.518-2.084l-31.785,10.323c-7.097-2.963-14.618-4.465-22.405-4.465
			s-15.307,1.5-22.405,4.465l-31.785-10.323c-3.006-0.976-6.303-0.168-8.518,2.084c-2.214,2.253-2.964,5.566-1.937,8.552
			l5.976,17.37c2.741,7.97,3.32,16.175,1.673,23.727c-1.062,4.87-1.494,9.89-1.287,14.92c1.25,30.193,25.886,54.715,56.085,55.827
			c0.743,0.027,1.483,0.041,2.223,0.041c15.184,0,29.473-5.751,40.448-16.329c11.513-11.098,17.855-26.015,17.855-42.003
			c0-3.84-0.378-7.682-1.121-11.42c-1.692-8.508-1.189-17.069,1.458-24.76l5.977-17.374
			C512.574,365.028,511.824,361.716,509.61,359.462z M489.81,379.966c-3.604,10.477-4.311,22.037-2.043,33.435
			c0.531,2.67,0.801,5.418,0.801,8.168c0,11.42-4.53,22.075-12.755,30.003c-8.22,7.922-19.056,12.05-30.491,11.632
			c-21.563-0.794-39.153-18.304-40.046-39.862c-0.15-3.608,0.159-7.2,0.918-10.68c2.297-10.535,1.538-21.841-2.198-32.698
			l-0.541-1.574l18.961,6.158c2.057,0.668,4.29,0.51,6.231-0.438c5.716-2.791,11.857-4.207,18.256-4.207s12.541,1.416,18.257,4.207
			c1.942,0.948,4.177,1.106,6.231,0.438l18.961-6.158L489.81,379.966z"/>
	</g>
</g>
<g>
	<g>
		<path d="M428.933,399.82c-4.602,0-8.333,3.731-8.333,8.333v11.852c0,4.602,3.731,8.333,8.333,8.333
			c4.602,0,8.333-3.731,8.333-8.333v-11.852C437.267,403.551,433.536,399.82,428.933,399.82z"/>
	</g>
</g>
<g>
	<g>
		<path d="M466.712,399.82c-4.602,0-8.333,3.731-8.333,8.333v11.852c0,4.602,3.731,8.333,8.333,8.333
			c4.602,0,8.333-3.731,8.333-8.333v-11.852C475.045,403.551,471.314,399.82,466.712,399.82z"/>
	</g>
</g>
<g>
	<g>
		<path d="M492.639,295.744c-4.602,0-8.333,3.731-8.333,8.333c0,3.982-3.24,7.222-7.222,7.222
			c-13.172,0-23.889,10.717-23.889,23.889v14.445c0,4.602,3.731,8.333,8.333,8.333s8.333-3.731,8.333-8.333v-14.445
			c0-3.982,3.24-7.222,7.222-7.222c13.172,0,23.889-10.717,23.889-23.889C500.972,299.475,497.241,295.744,492.639,295.744z"/>
	</g>
</g>
<g>
	<g>
		<circle cx="322.638" cy="388.527" r="8.333"/>
	</g>
</g>
<g>
	<g>
		<circle cx="322.638" cy="426.305" r="8.333"/>
	</g>
</g>
<g>
	<g>
		<circle cx="322.638" cy="464.095" r="8.333"/>
	</g>
</g>
<g>
	<g>
		<circle cx="208.447" cy="102.257" r="8.333"/>
	</g>
</g>
<g>
	<g>
		<circle cx="446.906" cy="435.561" r="8.333"/>
	</g>
</g>
</svg>