<?xml version="1.0" encoding="iso-8859-1"?>
<!-- Uploaded to: SVG Repo, www.svgrepo.com, Generator: SVG Repo Mixer Tools -->
<svg fill="#000000" height="800px" width="800px" version="1.1" id="Layer_1" xmlns="http://www.w3.org/2000/svg" xmlns:xlink="http://www.w3.org/1999/xlink" 
	 viewBox="0 0 512 512" xml:space="preserve">
<g>
	<g>
		<path d="M202.125,116.739c-18.606,0-33.743,15.137-33.743,33.743c0,4.429,3.591,8.019,8.019,8.019
			c4.429,0,8.019-3.591,8.019-8.019c0-9.762,7.942-17.705,17.705-17.705c9.762,0,17.705,7.942,17.705,17.705
			c0,4.429,3.591,8.019,8.019,8.019s8.019-3.591,8.019-8.019C235.868,131.877,220.731,116.739,202.125,116.739z"/>
	</g>
</g>
<g>
	<g>
		<path d="M309.867,116.739c-18.606,0-33.744,15.137-33.744,33.743c0,4.429,3.589,8.019,8.019,8.019c4.43,0,8.019-3.591,8.019-8.019
			c0-9.762,7.942-17.705,17.706-17.705c9.762,0,17.705,7.942,17.705,17.705c0,4.429,3.589,8.019,8.019,8.019
			c4.43,0,8.019-3.591,8.019-8.019C343.611,131.877,328.474,116.739,309.867,116.739z"/>
	</g>
</g>
<g>
	<g>
		<path d="M255.996,171.862c-18.606,0-33.743,15.137-33.743,33.743c0,4.429,3.591,8.019,8.019,8.019s8.019-3.591,8.019-8.019
			c0-9.762,7.942-17.705,17.705-17.705c9.762,0,17.705,7.942,17.705,17.705c0,4.429,3.589,8.019,8.019,8.019
			c4.43,0,8.019-3.591,8.019-8.019C289.739,186.999,274.603,171.862,255.996,171.862z"/>
	</g>
</g>
<g>
	<g>
		<path d="M133.97,171.862c-18.606,0-33.743,15.137-33.743,33.743c0,4.429,3.591,8.019,8.019,8.019s8.019-3.591,8.019-8.019
			c0-9.762,7.942-17.705,17.705-17.705c9.762,0,17.705,7.942,17.705,17.705c0,4.429,3.591,8.019,8.019,8.019
			c4.429,0,8.019-3.591,8.019-8.019C167.713,186.998,152.576,171.862,133.97,171.862z"/>
	</g>
</g>
<g>
	<g>
		<path d="M378.021,171.862c-18.606,0-33.744,15.137-33.744,33.743c0,4.429,3.589,8.019,8.019,8.019c4.43,0,8.019-3.591,8.019-8.019
			c0-9.762,7.942-17.705,17.706-17.705c9.762,0,17.705,7.942,17.705,17.705c0,4.429,3.589,8.019,8.019,8.019
			c4.429,0,8.019-3.591,8.019-8.019C411.764,186.999,396.628,171.862,378.021,171.862z"/>
	</g>
</g>
<g>
	<g>
		<path d="M297.039,392.298c-3.902-17.586-20.711-43.028-40.899-43.028h-0.287v0.001c-20.186,0-36.996,25.441-40.898,43.026
			c-3.723,16.775,4.438,22.585,8.121,24.303c6.831,3.188,14.784,3.755,23.089,1.652c3.153-0.799,6.412-1.203,9.686-1.203h0.29
			c3.274,0,6.533,0.404,9.685,1.203c3.285,0.832,6.535,1.253,9.662,1.253c0.001,0,0.001,0,0.001,0c4.78,0,9.297-0.977,13.427-2.905
			C292.598,414.882,300.761,409.074,297.039,392.298z M281.726,402.249c-1.903,0.82-3.949,1.219-6.238,1.219
			c-1.801,0-3.726-0.257-5.725-0.762c-4.439-1.124-9.023-1.694-13.623-1.694h-0.29c-4.601,0-9.184,0.57-13.623,1.694
			c-4.502,1.141-8.57,0.999-11.964-0.457c-0.708-2.051-0.035-9.842,5.93-20.053c5.901-10.1,13.801-16.886,19.658-16.886h0.285
			c5.858-0.001,13.759,6.785,19.66,16.886C281.762,392.408,282.434,400.199,281.726,402.249z"/>
	</g>
</g>
<g>
	<g>
		<path d="M252.284,306.656c-4.333-9.628-13.956-15.847-24.516-15.847c-3.815,0-7.523,0.799-11.022,2.374
			c-13.513,6.083-19.558,22.025-13.474,35.539c4.919,10.926,17.726,19.485,29.156,19.486h0.001c3.162,0,6.149-0.623,8.879-1.852
			C255.038,340.174,258.426,320.298,252.284,306.656z M234.726,331.728c-0.646,0.291-1.419,0.438-2.295,0.438h-0.001
			c-5.148,0-12.211-4.875-14.532-10.031c-1.188-2.64-1.278-5.584-0.251-8.29c1.025-2.706,3.044-4.851,5.683-6.039
			c1.415-0.637,2.907-0.959,4.437-0.959c4.261,0,8.143,2.509,9.892,6.392C240.604,319.776,239.013,329.798,234.726,331.728z"/>
	</g>
</g>
<g>
	<g>
		<path d="M206.828,337.959c-3.975-2.639-8.592-4.034-13.351-4.034c-8.126,0-15.658,4.039-20.149,10.802
			c-7.369,11.101-4.335,26.129,6.767,33.499c5.161,3.427,12.478,5.472,19.569,5.472h0.001c8.715,0,15.573-3.098,19.308-8.724
			C226.994,362.895,216.975,344.696,206.828,337.959z M205.614,366.103c-0.4,0.602-2.367,1.557-5.947,1.557h-0.001
			c-3.819,0-8.22-1.149-10.699-2.796c-3.734-2.479-4.755-7.533-2.276-11.267c1.511-2.275,4.048-3.634,6.786-3.634
			c1.593,0,3.141,0.469,4.48,1.358C203.289,354.861,207.053,363.936,205.614,366.103z"/>
	</g>
</g>
<g>
	<g>
		<path d="M295.244,293.181c-3.499-1.575-7.207-2.374-11.022-2.374c-10.56,0-20.183,6.22-24.518,15.847
			c-2.801,6.223-3.641,14.199-2.244,21.337c1.716,8.776,6.411,15.298,13.219,18.362c2.731,1.229,5.718,1.852,8.88,1.852
			c11.43,0,24.238-8.558,29.157-19.486C314.801,315.207,308.758,299.264,295.244,293.181z M294.093,322.136
			c-2.321,5.156-9.383,10.031-14.532,10.031c-0.877,0-1.65-0.148-2.295-0.438c-2.702-1.217-3.742-5.172-4.064-6.816
			c-0.771-3.941-0.338-8.414,1.129-11.673c1.748-3.883,5.632-6.392,9.893-6.392c1.53,0,3.023,0.323,4.436,0.959
			c2.64,1.188,4.659,3.333,5.684,6.039C295.37,316.552,295.281,319.496,294.093,322.136z"/>
	</g>
</g>
<g>
	<g>
		<path d="M338.661,344.726c-4.491-6.763-12.023-10.8-20.148-10.8c-4.758-0.001-9.375,1.395-13.352,4.034
			c-5.04,3.347-9.711,9.13-12.494,15.472c-3.582,8.16-3.458,15.812,0.348,21.544c3.735,5.625,10.592,8.723,19.31,8.723
			c7.092,0,14.408-2.045,19.57-5.473C342.997,370.855,346.033,355.827,338.661,344.726z M323.023,364.864
			c-2.48,1.647-6.88,2.796-10.699,2.796c-3.581,0-5.547-0.955-5.948-1.556c-0.408-0.616-0.505-2.851,0.977-6.227
			c1.762-4.017,4.625-7.191,6.679-8.555c1.338-0.888,2.887-1.358,4.48-1.358c2.739-0.001,5.277,1.358,6.788,3.633
			C327.778,357.331,326.757,362.385,323.023,364.864z"/>
	</g>
</g>
<g>
	<g>
		<path d="M510.313,329.59c-7.328-41.82-34.433-97.207-48.059-123.224c0.367-0.55,0.738-1.097,1.083-1.652
			c8.996-14.439,8.619-27.203,6.717-35.367c-3.855-16.564-17.792-29.055-32.415-29.055c-3.315,0-6.594,0.314-9.812,0.937
			c-7.464-19.731-26.564-33.319-48.245-33.319c-3.046,0-6.059,0.264-9.023,0.787c-6.683-21.017-26.441-35.961-49.154-35.961
			c-8.308,0-16.308,1.941-23.542,5.669c-9.589-13.392-24.961-21.418-41.866-21.418c-16.907,0-32.278,8.025-41.866,21.418
			c-7.233-3.727-15.234-5.669-23.542-5.669c-22.713,0-42.473,14.944-49.154,35.961c-2.963-0.523-5.976-0.787-9.022-0.787
			c-21.681,0-40.781,13.588-48.245,33.319c-3.218-0.622-6.498-0.937-9.813-0.937c-14.624,0-28.56,12.491-32.415,29.054
			c-1.901,8.165-2.279,20.929,6.718,35.369c0.345,0.554,0.715,1.1,1.081,1.649c-7.714,14.732-20.157,39.674-30.686,66.193
			c-1.634,4.117,0.379,8.779,4.494,10.412c0.971,0.385,1.972,0.568,2.958,0.568c3.19,0,6.207-1.917,7.456-5.062
			c9.038-22.765,19.55-44.389,27.086-59.073c0.901,0.831,1.833,1.653,2.792,2.466c0.032,0.028,0.064,0.056,0.096,0.082
			c0.018,0.015,0.037,0.031,0.055,0.046c0.678,0.572,1.37,1.14,2.075,1.702c0.034,0.028,0.067,0.055,0.102,0.082
			c0.051,0.041,0.104,0.081,0.155,0.121c1.706,1.352,3.494,2.678,5.363,3.978c0.149,0.104,0.296,0.208,0.447,0.312
			c0.045,0.031,0.091,0.061,0.136,0.092c0.641,0.439,1.29,0.876,1.949,1.309c0.177,0.118,0.354,0.236,0.535,0.354
			c0.138,0.09,0.28,0.177,0.419,0.267c0.602,0.388,1.21,0.775,1.827,1.158c0.164,0.103,0.323,0.204,0.491,0.307
			c0.335,0.205,0.681,0.414,1.038,0.627c0.473,0.284,0.946,0.568,1.426,0.849c0.129,0.077,0.255,0.153,0.388,0.23
			c0.367,0.213,0.747,0.426,1.126,0.639c0.514,0.292,1.025,0.586,1.548,0.876c0.099,0.056,0.195,0.11,0.298,0.167
			c0.602,0.331,1.228,0.663,1.91,1.024c0.338,0.18,0.669,0.36,1.012,0.539c0.06,0.031,0.117,0.063,0.177,0.094
			c0.96,0.499,1.942,0.997,2.94,1.49c0.061,0.03,0.12,0.062,0.181,0.092c0.006,0.003,0.014,0.008,0.021,0.011
			c0.902,0.475,1.884,0.974,2.984,1.517c26.888,13.345,66.383,22.739,111.298,26.862c0.002,0,0.005,0,0.007,0.001
			c10.86,1.168,21.682,1.974,32.167,2.396c22.469,0.907,45.221,0.233,67.626-2.002c0.891-0.074,1.753-0.156,2.631-0.233
			c1.906-0.169,3.809-0.343,5.701-0.531c1.788-0.176,3.562-0.359,5.314-0.551c0.751-0.082,1.501-0.166,2.25-0.251
			c2.519-0.288,5.022-0.585,7.503-0.908c0.791-0.103,1.538-0.322,2.232-0.631c0.028-0.013,0.058-0.021,0.086-0.034
			c0.15-0.068,0.291-0.149,0.434-0.226c0.087-0.047,0.177-0.087,0.262-0.137c0.164-0.095,0.318-0.202,0.474-0.309
			c0.059-0.041,0.121-0.075,0.177-0.117c0.156-0.113,0.303-0.236,0.45-0.36c0.05-0.043,0.105-0.08,0.154-0.124
			c0.128-0.113,0.247-0.236,0.367-0.357c0.061-0.061,0.127-0.118,0.186-0.181c0.107-0.114,0.204-0.238,0.305-0.358
			c0.064-0.077,0.133-0.149,0.194-0.228c0.115-0.15,0.219-0.307,0.324-0.465c0.037-0.057,0.08-0.109,0.115-0.167
			c0.12-0.19,0.227-0.387,0.33-0.586c0.015-0.029,0.033-0.056,0.048-0.086c0.224-0.448,0.406-0.918,0.544-1.406
			c0.004-0.014,0.01-0.026,0.013-0.04c0.279-1.004,0.366-2.08,0.223-3.179c-0.025-0.185-0.063-0.364-0.099-0.543
			c-0.017-0.088-0.028-0.177-0.048-0.264c-0.004-0.018-0.011-0.034-0.015-0.052c-0.886-3.665-4.232-6.227-8.008-6.122
			c-0.271,0.007-0.543,0.029-0.818,0.064c-0.029,0.003-0.057,0.006-0.086,0.011c-2.371,0.307-4.761,0.591-7.161,0.866
			c-0.746,0.086-1.495,0.169-2.248,0.251c-1.667,0.183-3.344,0.354-5.022,0.521c-1.941,0.191-3.91,0.374-5.908,0.55
			c-15.748,1.383-31.993,2.098-48.543,2.098c-16.448,0-32.526-0.69-47.931-2.008c-0.859-0.088-1.714-0.164-2.573-0.256
			c-0.042-0.004-0.083-0.009-0.125-0.013c-42.485-3.9-79.554-12.644-104.405-24.633l-0.433-0.205
			c-0.379-0.185-0.751-0.371-1.125-0.556c-0.823-0.412-1.646-0.823-2.442-1.244c-0.016-0.009-0.032-0.016-0.048-0.025
			c-0.034-0.018-0.068-0.035-0.104-0.052c-0.032-0.017-0.065-0.034-0.097-0.05c-0.088-0.043-0.171-0.088-0.259-0.13
			c-0.843-0.417-1.671-0.836-2.483-1.257c-0.727-0.377-1.441-0.76-2.148-1.144c-0.12-0.064-0.242-0.128-0.359-0.192
			c-25.184-13.783-37.79-31.566-33.905-48.258c2.394-10.285,10.581-16.651,16.795-16.651c4.293,0,8.496,0.761,12.494,2.264
			c2.207,0.83,4.67,0.645,6.73-0.505c2.06-1.151,3.509-3.149,3.962-5.464c3.248-16.617,17.914-28.678,34.872-28.678
			c4.212,0,8.331,0.728,12.241,2.163c2.288,0.839,4.832,0.594,6.914-0.667c2.084-1.261,3.482-3.4,3.8-5.815
			c2.314-17.59,17.457-30.854,35.222-30.854c7.789,0,15.185,2.475,21.388,7.158c1.913,1.443,4.37,1.956,6.704,1.398
			c2.331-0.559,4.29-2.133,5.339-4.289c6.008-12.346,18.262-20.015,31.978-20.015c13.716,0,25.97,7.67,31.977,20.015
			c1.049,2.156,3.008,3.729,5.339,4.289c2.333,0.558,4.792,0.047,6.705-1.399c6.202-4.682,13.598-7.158,21.387-7.158
			c17.766,0,32.907,13.265,35.222,30.854c0.318,2.414,1.716,4.554,3.799,5.815c2.084,1.261,4.628,1.505,6.915,0.667
			c3.91-1.435,8.03-2.163,12.241-2.163c16.958,0,31.625,12.061,34.872,28.678c0.452,2.315,1.901,4.314,3.961,5.464
			c2.06,1.151,4.523,1.335,6.73,0.505c3.998-1.502,8.202-2.264,12.495-2.264c6.213,0,14.401,6.366,16.795,16.652
			c4.148,17.814-10.49,36.872-39.154,50.983c-0.067,0.033-0.133,0.067-0.199,0.102c-4.771,2.516-10.131,4.914-15.994,7.179
			c-0.271,0.105-0.537,0.212-0.809,0.315c-13.45,5.126-29.539,9.545-47.498,13.008c-4.349,0.838-7.195,5.044-6.356,9.393
			c0.792,4.112,4.601,6.871,8.684,6.455c0.282-0.023,0.566-0.061,0.85-0.115c19.849-3.807,37.556-8.774,52.633-14.767
			c3.519-1.251,6.734-2.488,9.826-3.78c9.145-3.823,18.007-9.738,23.891-13.864c0.012-0.007,0.095-0.065,0.107-0.073
			c0.019-0.013,0.11-0.076,0.128-0.09l0.171-0.119c0.11-0.077,0.272-0.192,0.468-0.335c1.322-0.937,2.598-1.888,3.835-2.852
			c0.13-0.102,0.265-0.204,0.392-0.305c1.61-1.234,3.65-2.833,5.65-4.499c13.908,27.098,37.128,76.17,43.505,113.031
			c0.039,0.221,0.087,0.443,0.143,0.66c0.829,3.17,1.249,6.357,1.246,9.507c-0.006,0.165-0.013,0.329-0.015,0.494
			c-0.002,0.109-0.001,0.218,0.002,0.326c0.005,0.222,0.001,0.417-0.015,0.578c-0.011,0.118-0.019,0.236-0.025,0.354
			c-1.16,23.751-26.43,47.517-69.327,65.204c-45.684,18.835-106.256,29.208-170.562,29.208c-64.112,0-124.555-10.318-170.198-29.055
			c-42.87-17.599-68.268-41.277-69.68-64.962c-0.012-0.197-0.031-0.392-0.057-0.588c-0.046-0.343-0.057-0.668-0.032-0.994
			c0.015-0.2,0.022-0.4,0.022-0.601c0-3.015,0.39-6.093,1.16-9.146c0.05-0.202,0.094-0.406,0.129-0.613
			c1.5-8.806,4.113-18.977,7.769-30.231c1.368-4.212-0.938-8.736-5.149-10.104c-4.214-1.369-8.736,0.937-10.104,5.149
			c-3.854,11.865-6.637,22.693-8.274,32.191c-1.018,4.14-1.545,8.335-1.568,12.476c-0.072,1.221-0.034,2.457,0.111,3.686
			c1.971,30.413,30.219,58.309,79.582,78.572c47.53,19.512,110.137,30.256,176.289,30.256c66.354,0,129.098-10.803,176.674-30.418
			c49.513-20.414,77.639-48.495,79.226-79.09c0.055-0.659,0.077-1.346,0.066-2.048c0.01-0.228,0.017-0.454,0.017-0.683
			C511.996,338.411,511.43,333.975,510.313,329.59z"/>
	</g>
</g>
</svg>