<svg xmlns="http://www.w3.org/2000/svg" viewBox="0 0 500 500"><g id="freepik--background-complete--inject-7"><path d="M443.92,330.2H263.17a5.87,5.87,0,0,1-5.86-5.86V61.06a5.87,5.87,0,0,1,5.86-5.86H443.92a5.87,5.87,0,0,1,5.86,5.86V324.34A5.87,5.87,0,0,1,443.92,330.2ZM263.17,55.45a5.62,5.62,0,0,0-5.61,5.61V324.34a5.62,5.62,0,0,0,5.61,5.61H443.92a5.61,5.61,0,0,0,5.61-5.61V61.06a5.61,5.61,0,0,0-5.61-5.61Z" style="fill:#e0e0e0"></path><path d="M235.49,330.2H54.75a5.87,5.87,0,0,1-5.87-5.86V61.06a5.87,5.87,0,0,1,5.87-5.86H235.49a5.86,5.86,0,0,1,5.86,5.86V324.34A5.86,5.86,0,0,1,235.49,330.2ZM54.75,55.45a5.62,5.62,0,0,0-5.62,5.61V324.34A5.62,5.62,0,0,0,54.75,330H235.49a5.61,5.61,0,0,0,5.61-5.61V61.06a5.61,5.61,0,0,0-5.61-5.61Z" style="fill:#e0e0e0"></path><rect y="391.27" width="500" height="0.25" style="fill:#e0e0e0"></rect><rect x="52.46" y="405.53" width="16.06" height="0.25" style="fill:#e0e0e0"></rect><rect x="171.14" y="402.82" width="53.53" height="0.25" style="fill:#e0e0e0"></rect><rect x="69.52" y="414.82" width="36.25" height="0.25" style="fill:#e0e0e0"></rect><rect x="379.14" y="402.69" width="43.19" height="0.25" style="fill:#e0e0e0"></rect><rect x="431.24" y="402.69" width="6.33" height="0.25" style="fill:#e0e0e0"></rect><rect x="317" y="408.92" width="53.89" height="0.25" style="fill:#e0e0e0"></rect><path d="M314.37,474.32a6.78,6.78,0,1,0-8.6-10.26L292,458.45a5.14,5.14,0,0,0-2.94-5.44,6.37,6.37,0,0,0-7.18.68,6.06,6.06,0,0,0-1.54,6.92,6.79,6.79,0,1,0,9,9.77l13.51,5.5c-.76,2.75.67,4.86,2.81,6a6.37,6.37,0,0,0,7.18-.68A6.06,6.06,0,0,0,314.37,474.32Z" style="fill:#e6e6e6"></path><path d="M216.43,470.1a5.45,5.45,0,1,0-10.16-3.51l-11.8,1.84a4.13,4.13,0,0,0-4.28-2.51,5.1,5.1,0,0,0-4.66,3.43,4.88,4.88,0,0,0,1.81,5.4,5.45,5.45,0,1,0,10.23,3l11.57-1.81a4.1,4.1,0,0,0,4.43,3,5.12,5.12,0,0,0,4.67-3.44A4.87,4.87,0,0,0,216.43,470.1Z" style="fill:#e0e0e0"></path><path d="M127.46,437.85a5.45,5.45,0,1,0-10.16-3.5l-11.81,1.84a4.11,4.11,0,0,0-4.27-2.52,5.1,5.1,0,0,0-4.66,3.43,4.86,4.86,0,0,0,1.8,5.4,5.45,5.45,0,1,0,10.24,3l11.57-1.81a4.09,4.09,0,0,0,4.43,3,5.11,5.11,0,0,0,4.66-3.44A4.85,4.85,0,0,0,127.46,437.85Z" style="fill:#e0e0e0"></path><path d="M394.4,419.41a6.78,6.78,0,1,0-12.92-3.48L367,419.23a5.15,5.15,0,0,0-5.53-2.77,6.39,6.39,0,0,0-5.5,4.67,6.07,6.07,0,0,0,2.71,6.56,6.78,6.78,0,1,0,13,2.85l14.23-3.24c.95,2.69,3.34,3.6,5.76,3.34a6.39,6.39,0,0,0,5.5-4.67A6.07,6.07,0,0,0,394.4,419.41Z" style="fill:#e6e6e6"></path><rect x="26.94" y="357.91" width="91.6" height="34.28" style="fill:#ebebeb"></rect><rect x="24.63" y="388" width="96.22" height="4.29" style="fill:#ebebeb"></rect><rect x="24.63" y="355.19" width="96.22" height="4.64" style="fill:#ebebeb"></rect><rect x="26.94" y="360.7" width="91.6" height="26.05" style="fill:#e6e6e6"></rect><rect x="26.94" y="365.22" width="91.6" height="16.2" style="fill:#fff;opacity:0.30000000000000004"></rect><ellipse cx="71.68" cy="374.11" rx="22.13" ry="8.89" style="fill:#fff"></ellipse><rect x="105.47" y="370.12" width="13.08" height="1.89" style="fill:#fff"></rect><rect x="105.47" y="374.63" width="13.08" height="1.89" style="fill:#fff"></rect><rect x="27.12" y="370.12" width="13.08" height="1.89" style="fill:#fff"></rect><rect x="27.12" y="374.63" width="13.08" height="1.89" style="fill:#fff"></rect><rect x="275.83" y="277.35" width="79.14" height="108.53" style="fill:#e6e6e6"></rect><rect x="274.22" y="274.03" width="82.6" height="4.65" style="fill:#e6e6e6"></rect><rect x="273.98" y="385.78" width="82.6" height="4.65" transform="translate(630.55 776.21) rotate(180)" style="fill:#e6e6e6"></rect><rect x="275.83" y="283.12" width="79.14" height="96.83" style="fill:#ebebeb"></rect><path d="M275.54,319.34c8.91,4,18.76,1.36,27.66-2.7s16.8-10.05,25.53-14.46,16.9-7.76,26.24-4.83V283.77H275.83Z" style="fill:#f5f5f5"></path><ellipse cx="315.28" cy="324.96" rx="22.14" ry="22.41" style="fill:#fff"></ellipse><path d="M304.45,315.68l5.39-2.59s-7.77-4.59-8.31-3.67S304.45,315.68,304.45,315.68Z" style="fill:#ebebeb"></path><path d="M312.81,313.58s-10.85,3.67-10.74,7.29.59,7.5,0,8.36-2.81,1.62-2.11,3.19a15.36,15.36,0,0,0,6.36,5.77,25.14,25.14,0,0,1,2.82,0c.87.11,5.24-.32,5.24-.32l6.32,5.37s7.88-4.56,9.76-10.66c1.49-4.83,1-8.69-2.53-13.23S313.14,307,312.22,307.86,312.81,313.58,312.81,313.58Z" style="fill:#ebebeb"></path><path d="M306.11,326.94s0-2.08.78-2.24a10.82,10.82,0,0,1,2.26,0s.15,2.79-1.48,2.86C305.78,327.64,306.11,326.94,306.11,326.94Z" style="fill:#fff"></path><text transform="translate(287.95 358.99)" style="font-size:11.7666597366333px;fill:#fff;font-family:Montserrat-ExtraBold, Montserrat;font-weight:800"><tspan style="letter-spacing:-0.005062635772031288em">c</tspan><tspan x="6.55" y="0">at </tspan><tspan x="21.56" y="0" style="letter-spacing:-0.010042277515012882em">f</tspan><tspan x="26.25" y="0" style="letter-spacing:0.00008299402904969325em">ood</tspan></text><path d="M288.28,362.92h25.27a1.5,1.5,0,0,0,0-3H288.28a1.5,1.5,0,0,0,0,3Z" style="fill:#fff"></path><path d="M313,362.92h27.41a1.5,1.5,0,0,0,0-3H313a1.5,1.5,0,0,0,0,3Z" style="fill:#fff"></path><path d="M331.32,368.65H299.24a1.67,1.67,0,0,1-1.67-1.67h0a1.67,1.67,0,0,1,1.67-1.67h32.08A1.66,1.66,0,0,1,333,367h0A1.66,1.66,0,0,1,331.32,368.65Z" style="fill:#fff"></path><g style="opacity:0.30000000000000004"><path d="M355,346c-8.91-4-18.76-1.36-27.67,2.7s-16.79,10.05-25.52,14.46S284.87,371,275.54,368v13.59h79.14Z" style="fill:#fff"></path></g><rect x="275.54" y="288.64" width="20.83" height="7.46" style="fill:#fff"></rect><rect x="381.08" y="277.35" width="79.14" height="108.53" style="fill:#e6e6e6"></rect><rect x="379.48" y="274.03" width="82.6" height="4.65" style="fill:#e6e6e6"></rect><rect x="379.23" y="385.78" width="82.6" height="4.65" transform="translate(841.06 776.21) rotate(180)" style="fill:#e6e6e6"></rect><rect x="381.08" y="283.12" width="79.14" height="96.83" style="fill:#ebebeb"></rect><path d="M380.79,319.34c8.91,4,18.76,1.36,27.67-2.7s16.79-10.05,25.52-14.46,16.91-7.76,26.24-4.83V283.77H381.08Z" style="fill:#f5f5f5"></path><ellipse cx="420.53" cy="324.96" rx="22.14" ry="22.41" style="fill:#fff"></ellipse><path d="M409.7,315.68l5.4-2.59s-7.78-4.59-8.32-3.67S409.7,315.68,409.7,315.68Z" style="fill:#ebebeb"></path><path d="M418.07,313.58s-10.85,3.67-10.75,7.29.6,7.5,0,8.36-2.8,1.62-2.1,3.19,3.48,4.42,6.35,5.77a25.3,25.3,0,0,1,2.83,0c.86.11,5.23-.32,5.23-.32l6.33,5.37s7.88-4.56,9.76-10.66c1.49-4.83,1-8.69-2.54-13.23S418.39,307,417.47,307.86,418.07,313.58,418.07,313.58Z" style="fill:#ebebeb"></path><path d="M411.37,326.94s0-2.08.78-2.24a10.84,10.84,0,0,1,2.26,0s.14,2.79-1.49,2.86C411,327.64,411.37,326.94,411.37,326.94Z" style="fill:#fff"></path><text transform="translate(393.2 358.99)" style="font-size:11.7666597366333px;fill:#fff;font-family:Montserrat-ExtraBold, Montserrat;font-weight:800"><tspan style="letter-spacing:-0.005062635772031288em">c</tspan><tspan x="6.55" y="0">at </tspan><tspan x="21.56" y="0" style="letter-spacing:-0.010042277515012882em">f</tspan><tspan x="26.25" y="0" style="letter-spacing:0.00008299402904969325em">ood</tspan></text><path d="M393.53,362.92H418.8a1.5,1.5,0,0,0,0-3H393.53a1.5,1.5,0,0,0,0,3Z" style="fill:#fff"></path><path d="M418.28,362.92h27.4a1.5,1.5,0,0,0,0-3h-27.4a1.5,1.5,0,0,0,0,3Z" style="fill:#fff"></path><path d="M436.57,368.65H404.49a1.67,1.67,0,0,1-1.67-1.67h0a1.67,1.67,0,0,1,1.67-1.67h32.08a1.67,1.67,0,0,1,1.67,1.67h0A1.67,1.67,0,0,1,436.57,368.65Z" style="fill:#fff"></path><g style="opacity:0.30000000000000004"><path d="M460.22,346c-8.91-4-18.76-1.36-27.66,2.7S415.76,358.79,407,363.2,390.13,371,380.79,368v13.59h79.14Z" style="fill:#fff"></path></g><rect x="380.79" y="288.64" width="20.83" height="7.46" style="fill:#fff"></rect><path d="M295.28,193.26c-4.63-2.37-7.33-2.95-10.77-1.39s-6,4.54-8.44,7.43l-8.44,10c-2.6,3.08-5.34,6.54-5.33,10.57s2.86,7.55,6.4,9.33,7.68,2.05,11.64,1.76,7.88-1.09,11.84-1.28c4.46-.22,9,.33,13.36-.43s8.88-3.21,10.39-7.41c1.94-5.39-1.64-11.1-5.36-15.44a55.69,55.69,0,0,0-15.29-13.16" style="fill:#e6e6e6"></path><path d="M323.29,187.65c-.89-3.78-3.24-10.23-6.56-10.53a9.37,9.37,0,0,0-6,3.4,17.81,17.81,0,0,0-3.21,6.22,17.18,17.18,0,0,0-.9,7.61,9,9,0,0,0,3.89,6.39c3.32,2,8,.86,10.51-2.08S324.17,191.44,323.29,187.65Z" style="fill:#e6e6e6"></path><path d="M268.35,198.78a15.29,15.29,0,0,0-4.1-8.05,52.26,52.26,0,0,0-5.94-5.29,4.87,4.87,0,0,0-6.44.24,8.61,8.61,0,0,0-1.24,1.59,13.57,13.57,0,0,0-1.62,6.45,18.33,18.33,0,0,0,1.65,8.68,11.77,11.77,0,0,0,6.35,5.95,8.74,8.74,0,0,0,8.42-1.27A9.28,9.28,0,0,0,268.35,198.78Z" style="fill:#e6e6e6"></path><path d="M276.74,159.67A17.09,17.09,0,0,0,265,184.4c1.7,3.23,4.9,6,8.54,5.85a8.54,8.54,0,0,0,6.59-4.47,17.58,17.58,0,0,0,2-8,38.26,38.26,0,0,0-1.85-13.6c-.58-1.75-1.53-3.7-3.34-4.12" style="fill:#e6e6e6"></path><path d="M293.73,160.49a4.94,4.94,0,0,0-6,1.4,9.22,9.22,0,0,0-1.38,4.71,34.25,34.25,0,0,0,.25,10.31,14.72,14.72,0,0,0,5.13,8.74,9.51,9.51,0,0,0,9.74,1.3c3.25-1.6,5.05-5.37,5.09-9s-1.42-7.12-3.29-10.23c-2.08-3.46-5.31-5.33-9-7" style="fill:#e6e6e6"></path><path d="M357.51,84.12c-1.15-2.35-2.06-3.39-3.91-3.8a13.12,13.12,0,0,0-5.62.45l-6.4,1.49c-2,.46-4.1,1-5.31,2.65a5.54,5.54,0,0,0-.23,5.67,11.13,11.13,0,0,0,4.15,4.19c1.67,1.08,3.48,1.93,5.13,3,1.86,1.25,3.5,2.82,5.5,3.83s4.53,1.38,6.39.15c2.4-1.58,2.68-5,2.48-7.81a27.63,27.63,0,0,0-2.18-9.87" style="fill:#f5f5f5"></path><path d="M370.43,90.27c.79-1.78,1.78-5.08.53-6.2a4.76,4.76,0,0,0-3.42-.43,8.9,8.9,0,0,0-3.15,1.54A8.68,8.68,0,0,0,361.74,88a4.52,4.52,0,0,0-.36,3.74A4.3,4.3,0,0,0,366.23,94,6.31,6.31,0,0,0,370.43,90.27Z" style="fill:#f5f5f5"></path><path d="M345,78.25a7.64,7.64,0,0,0,.78-4.47,27.36,27.36,0,0,0-.8-3.9A2.45,2.45,0,0,0,342.35,68a4.11,4.11,0,0,0-1,.27,6.77,6.77,0,0,0-2.59,2.1,9.1,9.1,0,0,0-1.94,4,5.89,5.89,0,0,0,.76,4.3,4.38,4.38,0,0,0,3.76,2A4.59,4.59,0,0,0,345,78.25Z" style="fill:#f5f5f5"></path><path d="M360.14,65.06A8.57,8.57,0,0,0,348,71.46c-.28,1.8.15,3.9,1.68,4.91a4.26,4.26,0,0,0,4,.18,8.71,8.71,0,0,0,3.18-2.61,18.89,18.89,0,0,0,3.34-6,2.77,2.77,0,0,0-.1-2.66" style="fill:#f5f5f5"></path><path d="M366.72,70.5a2.47,2.47,0,0,0-2.83-1.25,4.6,4.6,0,0,0-2,1.48,17,17,0,0,0-3,4.21,7.38,7.38,0,0,0-.57,5,4.78,4.78,0,0,0,3.52,3.45,5.09,5.09,0,0,0,4.75-2.08,10,10,0,0,0,1.74-5.1,9.18,9.18,0,0,0-1.51-5.5" style="fill:#f5f5f5"></path><path d="M373.45,154.76c-2.67-3.51-4.52-4.94-7.72-5s-6.24,1.26-9.16,2.57l-10.13,4.55c-3.12,1.4-6.48,3-7.95,6.12s-.59,6.81,1.47,9.47a18.76,18.76,0,0,0,8.24,5.61c3.13,1.23,6.41,2.06,9.51,3.37,3.48,1.47,6.72,3.54,10.35,4.57s8,.81,10.65-1.84c3.45-3.4,2.82-9.07,1.57-13.75a47.16,47.16,0,0,0-6.83-15.66" style="fill:#f0f0f0"></path><path d="M396.88,160.76c.72-3.21,1.28-9-1.14-10.45a8,8,0,0,0-5.81.4,15.15,15.15,0,0,0-4.73,3.57,14.51,14.51,0,0,0-3.48,5.48,7.57,7.57,0,0,0,.62,6.31c1.79,2.77,5.77,3.59,8.79,2.27A10.67,10.67,0,0,0,396.88,160.76Z" style="fill:#f0f0f0"></path><path d="M350.86,149.09a12.89,12.89,0,0,0-.18-7.65,44.06,44.06,0,0,0-2.59-6.22,4.14,4.14,0,0,0-5-2.18,6.65,6.65,0,0,0-1.53.77,11.49,11.49,0,0,0-3.61,4.32,15.46,15.46,0,0,0-1.92,7.23,9.94,9.94,0,0,0,2.66,6.88,7.43,7.43,0,0,0,6.9,2.12A7.87,7.87,0,0,0,350.86,149.09Z" style="fill:#f0f0f0"></path><path d="M371.62,122.31a14.48,14.48,0,0,0-18.07,14.56c.11,3.09,1.52,6.42,4.38,7.6a7.25,7.25,0,0,0,6.67-1,14.85,14.85,0,0,0,4.43-5.37,32.22,32.22,0,0,0,3.58-11.05c.2-1.56.19-3.39-1-4.37" style="fill:#f0f0f0"></path><path d="M384.29,129.18a4.18,4.18,0,0,0-5.1-1.14,7.7,7.7,0,0,0-2.78,3.09,28.84,28.84,0,0,0-3.6,8,12.54,12.54,0,0,0,.7,8.56,8.09,8.09,0,0,0,7,4.57c3.08,0,5.83-2.25,7.19-5a16.81,16.81,0,0,0,1.24-9c-.32-3.4-2.09-6-4.29-8.63" style="fill:#f0f0f0"></path><path d="M152.56,111.81c-7-3.9-11.07-4.94-16.44-2.76s-9.46,6.6-13.37,10.89q-6.77,7.43-13.54,14.86c-4.17,4.58-8.57,9.72-8.79,15.91s3.93,11.73,9.27,14.68,11.65,3.58,17.74,3.37,12.13-1.2,18.23-1.26c6.84-.07,13.72,1,20.5.12s13.81-4.39,16.37-10.74c3.28-8.14-1.86-17.11-7.31-24-7.35-9.26-12.47-14.31-22.66-21.08" style="fill:#f5f5f5"></path><path d="M195.82,104.87C194.69,99,191.46,89,186.39,88.34A14.39,14.39,0,0,0,177,93.2a27.36,27.36,0,0,0-5.29,9.34,26.34,26.34,0,0,0-1.82,11.62,13.7,13.7,0,0,0,5.59,10c5,3.3,12.17,1.79,16.23-2.58S197,110.73,195.82,104.87Z" style="fill:#f5f5f5"></path><path d="M110.93,118.7a23.36,23.36,0,0,0-5.8-12.6,83.5,83.5,0,0,0-8.79-8.46,7.5,7.5,0,0,0-9.89,0,12.58,12.58,0,0,0-2,2.38,20.61,20.61,0,0,0-2.87,9.78,27.84,27.84,0,0,0,2,13.4A18.06,18.06,0,0,0,93,132.7a13.43,13.43,0,0,0,13-1.46C109.7,128.38,111.38,123.37,110.93,118.7Z" style="fill:#f5f5f5"></path><path d="M126.1,59.22a26.24,26.24,0,0,0-19.51,37.23c2.42,5,7.16,9.57,12.76,9.46,4.24-.08,8.1-2.87,10.36-6.46s3.13-7.89,3.49-12.12a58.15,58.15,0,0,0-2-21c-.79-2.73-2.14-5.76-4.87-6.51" style="fill:#f5f5f5"></path><path d="M152.11,61.49a7.58,7.58,0,0,0-9.3,1.79c-1.59,2-2.05,4.62-2.38,7.14-.71,5.24-1.14,10.6-.23,15.82s3.26,10.33,7.34,13.71,10,4.71,14.86,2.56c5.08-2.26,8.06-7.93,8.33-13.49S169,78,166.29,73.15c-3-5.43-7.82-8.49-13.36-11.25" style="fill:#f5f5f5"></path><path d="M289.51,107.85c-3.26-1.76-5.18-2.2-7.65-1.14s-4.34,3.14-6.12,5.17l-6.16,7c-1.89,2.16-3.89,4.58-3.94,7.46a7.86,7.86,0,0,0,4.43,6.74,15.84,15.84,0,0,0,8.26,1.41c2.82-.15,5.62-.66,8.45-.74,3.18-.09,6.38.36,9.52-.12s6.37-2.16,7.51-5.12c1.45-3.81-1-7.93-3.6-11.08a39.57,39.57,0,0,0-10.7-9.59" style="fill:#f0f0f0"></path><path d="M309.54,104.26c-.58-2.71-2.16-7.34-4.52-7.6A6.68,6.68,0,0,0,300.71,99a12.7,12.7,0,0,0-2.38,4.38,12.23,12.23,0,0,0-.74,5.41,6.34,6.34,0,0,0,2.68,4.61c2.33,1.49,5.66.73,7.51-1.34A9,9,0,0,0,309.54,104.26Z" style="fill:#f0f0f0"></path><path d="M270.25,111.4a10.88,10.88,0,0,0-2.81-5.8,38.57,38.57,0,0,0-4.15-3.85,3.48,3.48,0,0,0-4.59.08,5.79,5.79,0,0,0-.91,1.12,9.5,9.5,0,0,0-1.24,4.57,12.9,12.9,0,0,0,1.05,6.2,8.37,8.37,0,0,0,4.43,4.33,6.23,6.23,0,0,0,6-.78A6.61,6.61,0,0,0,270.25,111.4Z" style="fill:#f0f0f0"></path><path d="M276.78,83.66A12.18,12.18,0,0,0,268,101.11c1.17,2.32,3.4,4.38,6,4.28a6.07,6.07,0,0,0,4.76-3.09,12.51,12.51,0,0,0,1.52-5.65,27,27,0,0,0-1.12-9.71c-.39-1.26-1-2.66-2.32-3" style="fill:#f0f0f0"></path><path d="M288.87,84.49a3.52,3.52,0,0,0-4.3.91,6.51,6.51,0,0,0-1,3.33,24.15,24.15,0,0,0,0,7.35,10.57,10.57,0,0,0,3.53,6.3,6.78,6.78,0,0,0,6.92,1.07,7.22,7.22,0,0,0,3.76-6.34,14.21,14.21,0,0,0-2.21-7.33c-1.43-2.49-3.7-3.87-6.29-5.11" style="fill:#f0f0f0"></path></g><g id="freepik--Shadow--inject-7"><path d="M458.88,444.7c0,3.39-93.52,6.13-208.88,6.13S41.12,448.09,41.12,444.7s93.52-6.13,208.88-6.13S458.88,441.31,458.88,444.7Z" style="fill:#f5f5f5"></path></g><g id="freepik--food-bag--inject-7"><polygon points="61.61 392.15 61.61 226.9 81.59 158.53 78.82 138.48 225.58 138.48 221.9 158.53 245.4 228.8 245.4 392.15 61.61 392.15" style="fill:#06DCC2"></polygon><g style="opacity:0.4"><path d="M81.8,158.53c17,20.45,45.58,30.47,70.87,37.54S204.81,211,222.29,231c12.25,14,18.41,32.48,22.89,50.73l.22-52.92-23.5-70.27Z" style="fill:#fff"></path></g><polygon points="81.59 158.53 103.59 227.94 103.59 392.22 61.61 392.15 61.61 226.9 81.59 158.53" style="opacity:0.30000000000000004"></polygon><ellipse cx="177.42" cy="272.48" rx="42.48" ry="43.54" style="fill:#fff"></ellipse><polygon points="81.59 158.53 221.9 158.53 225.58 138.48 78.82 138.48 81.59 158.53" style="fill:#fff;opacity:0.30000000000000004"></polygon><path d="M159.38,270.49s-16,2.16-17.59,5.15,3.94,15,6.73,18.34,11.4,3.15,15.55,2.93,10.35.53,11.94,4.53a101.16,101.16,0,0,0,4.76,9.67,41.66,41.66,0,0,0,18.22-6.4c9.33-6,13-16.11,13-16.11s-7.23-14.92-11.58-18.68c0,0,2.7-2.81,2.8-9.95s-1.07-17.92-4.73-18.46-10.41,14.95-12.53,16.28-13,.3-15.69,1.82S159.44,271.2,159.38,270.49Z" style="fill:#06DCC2"></path><path d="M176.64,244.2c2.57-.49,4.56,12.46,4.56,12.46s-9.43.78-9.67.84C171.53,257.5,171.54,245.19,176.64,244.2Z" style="fill:#06DCC2"></path><path d="M169.93,269.17c-4.35,1-1.9,4.87-1.9,4.87l5.17-2.16Z" style="fill:#fff"></path><text transform="translate(129.09 336.8) scale(0.98 1)" style="font-size:19.993600845336914px;fill:#fff;font-family:Montserrat-ExtraBold, Montserrat;font-weight:800">dog <tspan x="44" y="0" style="letter-spacing:-0.00998711602465849em">f</tspan><tspan x="51.98" y="0" style="letter-spacing:0.00002503036597658769em">ood</tspan></text><path d="M129.64,342.42h22.6a1.5,1.5,0,0,0,0-3h-22.6a1.5,1.5,0,0,0,0,3Z" style="fill:#fff"></path><path d="M170.66,342.42h54.2a1.5,1.5,0,0,0,0-3h-54.2a1.5,1.5,0,0,0,0,3Z" style="fill:#fff"></path><rect x="148.96" y="348.71" width="58.71" height="5.67" style="fill:#fff"></rect><rect x="211.38" y="155.48" width="11.62" height="6.03" rx="2.94" style="fill:#fff"></rect><path d="M81.8,158.53c45.23-.31,96-.31,141.19,0-45.23.31-96,.3-141.19,0Z"></path><polygon points="61.61 392.15 84.67 373.6 103.59 392.22 61.61 392.15" style="opacity:0.30000000000000004"></polygon><polygon points="84.67 373.6 81.59 158.53 61.61 226.9 61.61 392.15 84.67 373.6" style="opacity:0.2"></polygon><path d="M128.57,269.24c2.3-19.75,15.54-37.79,34.82-43.8a46.41,46.41,0,0,1,16.56-2c1.92.12,1.92-2.88,0-3a50,50,0,0,0-30,8.1,54.09,54.09,0,0,0-19.73,23.63,59.62,59.62,0,0,0-4.6,17.09c-.23,1.91,2.77,1.9,3,0Z" style="fill:#fff"></path><path d="M103.59,363.15s13.52,10.52,48.65,19.76a286.89,286.89,0,0,0,64.88,9.31H103.59Z" style="fill:#fff;opacity:0.30000000000000004"></path><polygon points="229.51 181.47 197.55 181.47 194.44 172.02 226.4 172.02 229.51 181.47" style="fill:#fff"></polygon></g><g id="freepik--food-plate--inject-7"><path d="M311.85,412.61a7.45,7.45,0,1,0-4.92-13.85l-12-11.06A5.62,5.62,0,0,0,294,381a7,7,0,0,0-7.65-2.06,6.65,6.65,0,0,0-4.23,6.53A7.45,7.45,0,1,0,287.59,399l11.79,10.84c-1.83,2.53-1.17,5.26.59,7.28a7,7,0,0,0,7.65,2.06A6.66,6.66,0,0,0,311.85,412.61Z" style="fill:#06DCC2"></path><path d="M311.85,412.61a7.45,7.45,0,1,0-4.92-13.85l-12-11.06A5.62,5.62,0,0,0,294,381a7,7,0,0,0-7.65-2.06,6.65,6.65,0,0,0-4.23,6.53A7.45,7.45,0,1,0,287.59,399l11.79,10.84c-1.83,2.53-1.17,5.26.59,7.28a7,7,0,0,0,7.65,2.06A6.66,6.66,0,0,0,311.85,412.61Z" style="opacity:0.1"></path><path d="M260.79,414a7.47,7.47,0,0,0,12.11-7.79,7.63,7.63,0,0,0-4.11-4.55l1.46-16.28c2.7-.35,4.25-2.41,4.75-4.84a7,7,0,0,0-3-7.32,6.66,6.66,0,0,0-7.76.61,7.46,7.46,0,1,0-7.36,12.6l-1.43,16c-3.12.09-4.88,2.27-5.42,4.9a7,7,0,0,0,3,7.32A6.66,6.66,0,0,0,260.79,414Z" style="fill:#06DCC2"></path><path d="M260.79,414a7.47,7.47,0,0,0,12.11-7.79,7.63,7.63,0,0,0-4.11-4.55l1.46-16.28c2.7-.35,4.25-2.41,4.75-4.84a7,7,0,0,0-3-7.32,6.66,6.66,0,0,0-7.76.61,7.46,7.46,0,1,0-7.36,12.6l-1.43,16c-3.12.09-4.88,2.27-5.42,4.9a7,7,0,0,0,3,7.32A6.66,6.66,0,0,0,260.79,414Z" style="opacity:0.1"></path><path d="M320.18,418.31a7.45,7.45,0,1,0,8-12.33l1.45-16.28a5.64,5.64,0,0,0,4.75-4.84,7,7,0,0,0-3-7.32,6.66,6.66,0,0,0-7.76.61,7.46,7.46,0,1,0-7.36,12.6l-1.42,16c-3.13.09-4.89,2.27-5.43,4.9a7,7,0,0,0,3,7.32A6.65,6.65,0,0,0,320.18,418.31Z" style="fill:#06DCC2"></path><path d="M320.18,418.31a7.45,7.45,0,1,0,8-12.33l1.45-16.28a5.64,5.64,0,0,0,4.75-4.84,7,7,0,0,0-3-7.32,6.66,6.66,0,0,0-7.76.61,7.46,7.46,0,1,0-7.36,12.6l-1.42,16c-3.13.09-4.89,2.27-5.43,4.9a7,7,0,0,0,3,7.32A6.65,6.65,0,0,0,320.18,418.31Z" style="opacity:0.1"></path><path d="M255.9,414a7.47,7.47,0,0,0,5.18-13.43,7.61,7.61,0,0,0-6-1.25l-8.43-14a5.64,5.64,0,0,0,1-6.71,7,7,0,0,0-6.77-4.13,6.66,6.66,0,0,0-5.9,5.08,7.45,7.45,0,1,0,1.5,14.51l8.27,13.72c-2.47,1.92-2.6,4.72-1.49,7.16A7,7,0,0,0,250,419.1,6.66,6.66,0,0,0,255.9,414Z" style="fill:#06DCC2"></path><path d="M255.9,414a7.47,7.47,0,0,0,5.18-13.43,7.61,7.61,0,0,0-6-1.25l-8.43-14a5.64,5.64,0,0,0,1-6.71,7,7,0,0,0-6.77-4.13,6.66,6.66,0,0,0-5.9,5.08,7.45,7.45,0,1,0,1.5,14.51l8.27,13.72c-2.47,1.92-2.6,4.72-1.49,7.16A7,7,0,0,0,250,419.1,6.66,6.66,0,0,0,255.9,414Z" style="opacity:0.30000000000000004"></path><path d="M262.86,397.88a7.45,7.45,0,1,0,11.23,9.49l16,3.49a5.64,5.64,0,0,0,4.21,5.32,7,7,0,0,0,7.65-2.07,6.67,6.67,0,0,0,.36-7.78,7.45,7.45,0,1,0-11.57-8.89L275.05,394c.31-3.11-1.64-5.13-4.17-6a7,7,0,0,0-7.65,2.08A6.65,6.65,0,0,0,262.86,397.88Z" style="fill:#06DCC2"></path><path d="M262.86,397.88a7.45,7.45,0,1,0,11.23,9.49l16,3.49a5.64,5.64,0,0,0,4.21,5.32,7,7,0,0,0,7.65-2.07,6.67,6.67,0,0,0,.36-7.78,7.45,7.45,0,1,0-11.57-8.89L275.05,394c.31-3.11-1.64-5.13-4.17-6a7,7,0,0,0-7.65,2.08A6.65,6.65,0,0,0,262.86,397.88Z" style="opacity:0.30000000000000004"></path><path d="M308,410.15a7.45,7.45,0,1,0,14.66,1.17l15-6.47a5.64,5.64,0,0,0,6.52,1.88,7,7,0,0,0,5-6.14,6.67,6.67,0,0,0-4.24-6.54,7.45,7.45,0,1,0-14.58-.47l-14.71,6.34c-1.56-2.71-4.33-3.22-6.89-2.45a7,7,0,0,0-5,6.15A6.65,6.65,0,0,0,308,410.15Z" style="fill:#06DCC2"></path><path d="M308,410.15a7.45,7.45,0,1,0,14.66,1.17l15-6.47a5.64,5.64,0,0,0,6.52,1.88,7,7,0,0,0,5-6.14,6.67,6.67,0,0,0-4.24-6.54,7.45,7.45,0,1,0-14.58-.47l-14.71,6.34c-1.56-2.71-4.33-3.22-6.89-2.45a7,7,0,0,0-5,6.15A6.65,6.65,0,0,0,308,410.15Z" style="opacity:0.30000000000000004"></path><path d="M266.15,401.65a7.45,7.45,0,1,0-13.73-5.26l-16.22,2a5.63,5.63,0,0,0-5.72-3.64,7,7,0,0,0-6.54,4.48,6.64,6.64,0,0,0,2.22,7.46A7.45,7.45,0,1,0,240,411.23l15.91-1.92c.73,3,3.24,4.3,5.91,4.29a7,7,0,0,0,6.54-4.48A6.66,6.66,0,0,0,266.15,401.65Z" style="fill:#06DCC2"></path><path d="M340.76,394a7.45,7.45,0,1,0-14,4.49l-11.42,11.68a5.65,5.65,0,0,0-6.74.74,7,7,0,0,0-2.3,7.59,6.67,6.67,0,0,0,6.4,4.43,7.45,7.45,0,1,0,13.67-5.1l11.2-11.45c2.48,1.91,5.22,1.33,7.3-.36a7,7,0,0,0,2.29-7.59A6.65,6.65,0,0,0,340.76,394Z" style="fill:#06DCC2"></path><path d="M288.51,418.62A7.45,7.45,0,1,0,301.62,412L311,398.6a5.63,5.63,0,0,0,6.54-1.8,7,7,0,0,0,1.06-7.85,6.64,6.64,0,0,0-7-3.36,7.46,7.46,0,1,0-12.69,7.21l-9.23,13.09c-2.75-1.49-5.37-.48-7.15,1.51a7,7,0,0,0-1.06,7.86A6.68,6.68,0,0,0,288.51,418.62Z" style="fill:#06DCC2"></path><path d="M202.65,445.22l10.52-30.91A10.85,10.85,0,0,1,223.45,407h123a9.39,9.39,0,0,1,9,6.6l9.9,31.67Z" style="fill:#263238"></path><path d="M202.65,445.22l10.52-30.91A10.85,10.85,0,0,1,223.45,407h123a9.39,9.39,0,0,1,9,6.6l9.9,31.67Z" style="fill:#fff;opacity:0.4"></path><polygon points="266.23 406.95 233.11 445.22 251.76 445.22 285.75 406.95 266.23 406.95" style="fill:#fff;opacity:0.4"></polygon><polygon points="291.73 406.95 258.61 445.22 263.3 445.22 295.21 406.95 291.73 406.95" style="fill:#fff;opacity:0.4"></polygon><path d="M266.45,448.34a7.45,7.45,0,1,0-13.73-5.26l-16.22,2a5.63,5.63,0,0,0-5.72-3.64,7,7,0,0,0-6.54,4.48,6.64,6.64,0,0,0,2.22,7.46,7.45,7.45,0,1,0,13.85,4.58L256.22,456c.73,3,3.23,4.3,5.91,4.29a7,7,0,0,0,6.54-4.48A6.66,6.66,0,0,0,266.45,448.34Z" style="fill:#06DCC2"></path></g><g id="freepik--food-cans-2--inject-7"><rect x="336.78" y="265.15" width="89.09" height="122.19" style="fill:#263238"></rect><rect x="336.78" y="265.15" width="89.09" height="122.19" style="fill:#fff;opacity:0.8"></rect><rect x="334.97" y="261.4" width="92.99" height="5.23" style="fill:#263238"></rect><rect x="334.97" y="261.4" width="92.99" height="5.23" style="fill:#fff;opacity:0.8"></rect><rect x="336.78" y="266.63" width="89.09" height="3.24" style="opacity:0.30000000000000004"></rect><rect x="334.69" y="387.21" width="92.99" height="5.23" transform="translate(762.37 779.66) rotate(180)" style="fill:#263238"></rect><rect x="334.69" y="387.21" width="92.99" height="5.23" transform="translate(762.37 779.66) rotate(180)" style="fill:#fff;opacity:0.8"></rect><rect x="336.78" y="383.97" width="89.09" height="3.24" transform="translate(762.65 771.19) rotate(180)" style="opacity:0.30000000000000004"></rect><rect x="336.78" y="271.63" width="89.09" height="109.02" style="fill:#06DCC2"></rect><ellipse cx="381.19" cy="318.75" rx="24.93" ry="25.23" style="fill:#fff"></ellipse><path d="M369,308.3l6.08-2.92s-8.75-5.17-9.36-4.13S369,308.3,369,308.3Z" style="fill:#06DCC2"></path><path d="M378.41,305.93s-12.21,4.13-12.09,8.2.67,8.45,0,9.42-3.16,1.82-2.37,3.59,3.92,5,7.15,6.5a26.64,26.64,0,0,1,3.18,0c1,.12,5.9-.36,5.9-.36l7.12,6s8.87-5.13,11-12c1.67-5.44,1.15-9.79-2.86-14.89s-16.65-13.92-17.69-12.94S378.41,305.93,378.41,305.93Z" style="fill:#06DCC2"></path><path d="M370.87,321s0-2.34.88-2.52a12.39,12.39,0,0,1,2.55,0s.16,3.15-1.68,3.23C370.5,321.76,370.87,321,370.87,321Z" style="fill:#fff"></path><text transform="translate(350.42 357.06)" style="font-size:13.247179985046387px;fill:#fff;font-family:Montserrat-ExtraBold, Montserrat;font-weight:800"><tspan style="letter-spacing:-0.005012859346288067em">c</tspan><tspan x="7.38" y="0">at </tspan><tspan x="24.27" y="0" style="letter-spacing:-0.00995200017277778em">f</tspan><tspan x="29.55" y="0">ood</tspan></text><path d="M350.79,361.29h28.45a1.5,1.5,0,0,0,0-3H350.79a1.5,1.5,0,0,0,0,3Z" style="fill:#fff"></path><path d="M378.65,361.29h30.86a1.5,1.5,0,0,0,0-3H378.65a1.5,1.5,0,0,0,0,3Z" style="fill:#fff"></path><rect x="361.25" y="364.17" width="39.87" height="3.76" rx="1.76" style="fill:#fff"></rect><g style="opacity:0.30000000000000004"><path d="M336.45,311.68c10,4.55,21.12,1.53,31.15-3s18.9-11.31,28.73-16.28,19-8.74,29.54-5.43v-15.3H336.78Z" style="fill:#fff"></path></g><g style="opacity:0.30000000000000004"><path d="M425.87,342.47c-10-4.55-21.12-1.53-31.14,3S375.82,356.82,366,361.79s-19,8.74-29.54,5.43v15.3h89.1Z" style="fill:#fff"></path></g><rect x="336.45" y="277.85" width="23.45" height="8.4" style="fill:#fff"></rect><rect x="328.54" y="224.73" width="97.74" height="36.57" style="fill:#263238"></rect><rect x="328.54" y="224.73" width="97.74" height="36.57" style="fill:#fff;opacity:0.8"></rect><rect x="326.08" y="256.84" width="102.66" height="4.57" style="fill:#263238"></rect><rect x="326.08" y="256.84" width="102.66" height="4.57" style="fill:#fff;opacity:0.7000000000000001"></rect><rect x="326.08" y="221.83" width="102.66" height="4.95" style="fill:#263238"></rect><rect x="326.08" y="221.83" width="102.66" height="4.95" style="fill:#fff;opacity:0.7000000000000001"></rect><rect x="328.54" y="227.71" width="97.74" height="27.79" style="fill:#06DCC2"></rect><rect x="328.54" y="232.53" width="97.74" height="17.28" style="fill:#fff;opacity:0.30000000000000004"></rect><rect x="328.54" y="226.78" width="97.74" height="2.77" style="opacity:0.30000000000000004"></rect><rect x="328.54" y="254.47" width="97.74" height="2.56" style="opacity:0.30000000000000004"></rect><ellipse cx="376.28" cy="242.02" rx="23.61" ry="9.48" style="fill:#fff"></ellipse><path d="M372.44,240.36s-4.18-5.29-10.39-3.78c0,0-.13,1.3,2.09,4.18s2.35,3.26,2.29,4.5-.72,3.46.13,3.86,4.7-1.31,6.27-3.66l3.52,1.7s-2,1.76-1.43,2.41,5-.13,6.72-1a10.76,10.76,0,0,0,5.62-1.31c2.87-1.57,4.9-3.59,4.64-5s-3.53-4.18-6.92-4.57a8.86,8.86,0,0,0-8.3-2.81c-5.16,1-3.13,1.89-2.81,2.15s1.77,1.24,1.77,1.24S373,239.84,372.44,240.36Z" style="fill:#06DCC2"></path><path d="M389.36,242a1.46,1.46,0,1,1-1.46-1.46A1.46,1.46,0,0,1,389.36,242Z" style="fill:#fff"></path><circle cx="392.06" cy="238.49" r="0.92" style="fill:#06DCC2"></circle><rect x="412.33" y="237.76" width="13.95" height="2.02" style="fill:#fff"></rect><rect x="412.33" y="242.56" width="13.95" height="2.02" style="fill:#fff"></rect><rect x="328.73" y="237.76" width="13.95" height="2.02" style="fill:#fff"></rect><rect x="328.73" y="242.56" width="13.95" height="2.02" style="fill:#fff"></rect></g><g id="freepik--food-can-1--inject-7"><rect x="111.45" y="375.43" width="91.6" height="34.28" style="fill:#263238"></rect><rect x="111.45" y="375.43" width="91.6" height="34.28" style="fill:#fff;opacity:0.8"></rect><rect x="109.14" y="405.53" width="96.22" height="4.29" style="fill:#263238"></rect><rect x="109.14" y="405.53" width="96.22" height="4.29" style="fill:#fff;opacity:0.7000000000000001"></rect><rect x="109.14" y="372.72" width="96.22" height="4.64" style="fill:#263238"></rect><rect x="109.14" y="372.72" width="96.22" height="4.64" style="fill:#fff;opacity:0.7000000000000001"></rect><rect x="111.45" y="378.23" width="91.6" height="26.05" style="fill:#06DCC2"></rect><rect x="111.45" y="382.75" width="91.6" height="16.2" style="fill:#fff;opacity:0.30000000000000004"></rect><rect x="111.45" y="377.36" width="91.6" height="2.6" style="opacity:0.30000000000000004"></rect><rect x="111.45" y="403.31" width="91.6" height="2.4" style="opacity:0.30000000000000004"></rect><ellipse cx="156.19" cy="391.64" rx="22.13" ry="8.89" style="fill:#fff"></ellipse><path d="M152.59,390.09s-3.92-5-9.74-3.55c0,0-.12,1.22,2,3.92s2.21,3.06,2.14,4.22-.67,3.24.13,3.61,4.4-1.22,5.87-3.43l3.31,1.59s-1.9,1.66-1.35,2.27,4.72-.12,6.31-1a10.14,10.14,0,0,0,5.26-1.22c2.69-1.47,4.59-3.37,4.35-4.66s-3.31-3.91-6.49-4.28a8.31,8.31,0,0,0-7.78-2.63c-4.83,1-2.93,1.77-2.63,2s1.66,1.16,1.66,1.16S153.14,389.6,152.59,390.09Z" style="fill:#06DCC2"></path><path d="M168.45,391.64a1.37,1.37,0,1,1-1.37-1.37A1.37,1.37,0,0,1,168.45,391.64Z" style="fill:#fff"></path><path d="M171.84,388.33a.86.86,0,1,1-.86-.86A.87.87,0,0,1,171.84,388.33Z" style="fill:#06DCC2"></path><rect x="189.97" y="387.65" width="13.08" height="1.89" style="fill:#fff"></rect><rect x="189.97" y="392.15" width="13.08" height="1.89" style="fill:#fff"></rect><rect x="111.63" y="387.65" width="13.08" height="1.89" style="fill:#fff"></rect><rect x="111.63" y="392.15" width="13.08" height="1.89" style="fill:#fff"></rect></g></svg>
