<!DOCTYPE svg PUBLIC "-//W3C//DTD SVG 1.1//EN" "http://www.w3.org/Graphics/SVG/1.1/DTD/svg11.dtd">
<!-- Uploaded to: SVG Repo, www.svgrepo.com, Transformed by: SVG Repo Mixer Tools -->
<svg height="800px" width="800px" version="1.1" id="_x32_" xmlns="http://www.w3.org/2000/svg" xmlns:xlink="http://www.w3.org/1999/xlink" viewBox="-30.72 -30.72 573.44 573.44" xml:space="preserve" fill="#000000" stroke="#000000" stroke-width="0.00512">
<g id="SVGRepo_bgCarrier" stroke-width="0"/>
<g id="SVGRepo_tracerCarrier" stroke-linecap="round" stroke-linejoin="round" stroke="#0000000" stroke-width="18.432"> <style type="text/css"> .st0{fill:#ffffff;} </style> <g> <path class="st0" d="M0,469.672c165.186-2.367,233.663-157.399,233.663-157.399l-84.18-58.331L0,469.672z"/> <path class="st0" d="M261.621,291.723l130.158-187.87c11.418-16.466,7.328-39.078-9.147-50.496l-40.327-27.926 c-16.459-11.41-39.069-7.32-50.488,9.155l-130.174,187.87c-4.284,6.176-2.738,14.647,3.446,18.931l77.593,53.766 C248.866,299.445,257.336,297.899,261.621,291.723z"/> <path class="st0" d="M103.875,465.436c-7.634,0-13.802,6.168-13.802,13.793c0,7.618,6.168,13.802,13.802,13.802 c7.617,0,13.786-6.184,13.786-13.802C117.661,471.604,111.492,465.436,103.875,465.436z"/> <path class="st0" d="M160.193,465.436c-7.617,0-13.802,6.168-13.802,13.793c0,7.618,6.184,13.802,13.802,13.802 c7.634,0,13.818-6.184,13.818-13.802C174.011,471.604,167.827,465.436,160.193,465.436z"/> <path class="st0" d="M216.527,465.436c-7.617,0-13.802,6.168-13.802,13.793c0,7.618,6.184,13.802,13.802,13.802 c7.618,0,13.802-6.184,13.802-13.802C230.33,471.604,224.145,465.436,216.527,465.436z"/> <path class="st0" d="M272.862,465.436c-7.618,0-13.802,6.168-13.802,13.793c0,7.618,6.184,13.802,13.802,13.802 c7.633,0,13.801-6.184,13.801-13.802C286.663,471.604,280.495,465.436,272.862,465.436z"/> <path class="st0" d="M329.196,465.436c-7.618,0-13.802,6.168-13.802,13.793c0,7.618,6.184,13.802,13.802,13.802 c7.617,0,13.801-6.184,13.801-13.802C342.997,471.604,336.813,465.436,329.196,465.436z"/> <path class="st0" d="M385.53,465.436c-7.618,0-13.802,6.168-13.802,13.793c0,7.618,6.184,13.802,13.802,13.802 c7.618,0,13.802-6.184,13.802-13.802C399.332,471.604,393.148,465.436,385.53,465.436z"/> <path class="st0" d="M441.865,465.436c-7.618,0-13.802,6.168-13.802,13.793c0,7.618,6.184,13.802,13.802,13.802 c7.617,0,13.801-6.184,13.801-13.802C455.666,471.604,449.482,465.436,441.865,465.436z"/> <path class="st0" d="M498.198,465.436c-7.634,0-13.801,6.168-13.801,13.793c0,7.618,6.168,13.802,13.801,13.802 c7.618,0,13.802-6.184,13.802-13.802C512,471.604,505.816,465.436,498.198,465.436z"/> </g> </g>
<g id="SVGRepo_iconCarrier"> <style type="text/css"> .st0{fill:#ffffff;} </style> <g> <path class="st0" d="M0,469.672c165.186-2.367,233.663-157.399,233.663-157.399l-84.18-58.331L0,469.672z"/> <path class="st0" d="M261.621,291.723l130.158-187.87c11.418-16.466,7.328-39.078-9.147-50.496l-40.327-27.926 c-16.459-11.41-39.069-7.32-50.488,9.155l-130.174,187.87c-4.284,6.176-2.738,14.647,3.446,18.931l77.593,53.766 C248.866,299.445,257.336,297.899,261.621,291.723z"/> <path class="st0" d="M103.875,465.436c-7.634,0-13.802,6.168-13.802,13.793c0,7.618,6.168,13.802,13.802,13.802 c7.617,0,13.786-6.184,13.786-13.802C117.661,471.604,111.492,465.436,103.875,465.436z"/> <path class="st0" d="M160.193,465.436c-7.617,0-13.802,6.168-13.802,13.793c0,7.618,6.184,13.802,13.802,13.802 c7.634,0,13.818-6.184,13.818-13.802C174.011,471.604,167.827,465.436,160.193,465.436z"/> <path class="st0" d="M216.527,465.436c-7.617,0-13.802,6.168-13.802,13.793c0,7.618,6.184,13.802,13.802,13.802 c7.618,0,13.802-6.184,13.802-13.802C230.33,471.604,224.145,465.436,216.527,465.436z"/> <path class="st0" d="M272.862,465.436c-7.618,0-13.802,6.168-13.802,13.793c0,7.618,6.184,13.802,13.802,13.802 c7.633,0,13.801-6.184,13.801-13.802C286.663,471.604,280.495,465.436,272.862,465.436z"/> <path class="st0" d="M329.196,465.436c-7.618,0-13.802,6.168-13.802,13.793c0,7.618,6.184,13.802,13.802,13.802 c7.617,0,13.801-6.184,13.801-13.802C342.997,471.604,336.813,465.436,329.196,465.436z"/> <path class="st0" d="M385.53,465.436c-7.618,0-13.802,6.168-13.802,13.793c0,7.618,6.184,13.802,13.802,13.802 c7.618,0,13.802-6.184,13.802-13.802C399.332,471.604,393.148,465.436,385.53,465.436z"/> <path class="st0" d="M441.865,465.436c-7.618,0-13.802,6.168-13.802,13.793c0,7.618,6.184,13.802,13.802,13.802 c7.617,0,13.801-6.184,13.801-13.802C455.666,471.604,449.482,465.436,441.865,465.436z"/> <path class="st0" d="M498.198,465.436c-7.634,0-13.801,6.168-13.801,13.793c0,7.618,6.168,13.802,13.801,13.802 c7.618,0,13.802-6.184,13.802-13.802C512,471.604,505.816,465.436,498.198,465.436z"/> </g> </g>
</svg>