<?xml version="1.0" encoding="iso-8859-1"?>
<!-- Uploaded to: SVG Repo, www.svgrepo.com, Generator: SVG Repo Mixer Tools -->
<svg fill="#000000" height="800px" width="800px" version="1.1" id="Layer_1" xmlns="http://www.w3.org/2000/svg" xmlns:xlink="http://www.w3.org/1999/xlink" 
	 viewBox="0 0 512 512" xml:space="preserve">
<g>
	<g>
		<path d="M466.002,167.726h-88.411c-9.295-12.769-20.549-24.022-33.317-33.317v-48.18c0-4.402-3.568-7.968-7.968-7.968
			c-4.402,0-7.968,3.567-7.968,7.968v37.974c-13.089-7.206-27.114-12.358-41.677-15.376c-0.242-0.05-0.484-0.101-0.727-0.15
			c-0.992-0.201-1.986-0.393-2.982-0.573c-0.412-0.074-0.826-0.145-1.239-0.216c-0.915-0.157-1.83-0.316-2.748-0.457
			c-0.583-0.09-1.172-0.166-1.758-0.25c-1.263-0.178-2.529-0.343-3.799-0.489c-0.841-0.098-1.683-0.194-2.529-0.278
			c-0.604-0.06-1.211-0.109-1.817-0.161c-0.871-0.075-1.745-0.144-2.621-0.205c-0.572-0.039-1.143-0.077-1.716-0.109
			c-0.967-0.055-1.937-0.099-2.909-0.136c-0.482-0.018-0.964-0.041-1.446-0.055c-1.452-0.041-2.908-0.068-4.37-0.068
			c-1.462,0-2.917,0.027-4.37,0.068c-0.482,0.014-0.965,0.037-1.446,0.055c-0.972,0.037-1.942,0.081-2.909,0.136
			c-0.573,0.033-1.144,0.07-1.716,0.109c-0.875,0.061-1.749,0.13-2.621,0.205c-0.606,0.052-1.212,0.102-1.817,0.161
			c-0.846,0.084-1.688,0.181-2.531,0.278c-1.269,0.147-2.533,0.31-3.795,0.489c-0.588,0.083-1.176,0.159-1.762,0.25
			c-0.918,0.14-1.833,0.299-2.747,0.457c-0.413,0.071-0.827,0.14-1.239,0.216c-0.997,0.181-1.991,0.373-2.982,0.573
			c-0.242,0.049-0.484,0.1-0.727,0.15c-14.563,3.017-28.587,8.17-41.677,15.376V45.998c0-16.576,13.485-30.061,30.061-30.061h84.552
			c16.576,0,30.061,13.485,30.061,30.061v14.154c0,4.402,3.567,7.968,7.968,7.968c4.401,0,7.968-3.568,7.968-7.968V45.998
			C344.274,20.635,323.639,0,298.276,0h-84.552c-25.363,0-45.998,20.635-45.998,45.998v88.411
			c-12.769,9.295-24.022,20.549-33.317,33.317H45.998C20.635,167.726,0,188.361,0,213.724v26.162c0,4.402,3.567,7.968,7.968,7.968
			c4.401,0,7.968-3.567,7.968-7.968v-26.162c0-16.576,13.485-30.061,30.061-30.061h78.205
			c-7.206,13.089-12.358,27.114-15.376,41.677c-0.05,0.242-0.101,0.484-0.15,0.727c-0.201,0.992-0.392,1.986-0.573,2.982
			c-0.074,0.412-0.143,0.826-0.216,1.239c-0.157,0.915-0.316,1.83-0.457,2.748c-0.089,0.583-0.166,1.172-0.25,1.757
			c-0.178,1.263-0.343,2.53-0.49,3.799c-0.098,0.841-0.194,1.683-0.278,2.529c-0.06,0.604-0.109,1.211-0.161,1.817
			c-0.075,0.872-0.145,1.745-0.205,2.621c-0.039,0.572-0.076,1.143-0.109,1.715c-0.055,0.967-0.099,1.937-0.136,2.909
			c-0.018,0.482-0.041,0.964-0.055,1.446c-0.041,1.452-0.068,2.908-0.068,4.37c0,1.462,0.027,2.917,0.068,4.37
			c0.014,0.482,0.037,0.965,0.055,1.446c0.037,0.972,0.081,1.942,0.136,2.909c0.033,0.573,0.07,1.144,0.109,1.716
			c0.061,0.875,0.13,1.749,0.205,2.621c0.052,0.606,0.102,1.212,0.161,1.817c0.084,0.846,0.181,1.688,0.278,2.53
			c0.147,1.269,0.31,2.533,0.489,3.795c0.083,0.588,0.159,1.176,0.25,1.762c0.141,0.918,0.299,1.833,0.457,2.747
			c0.071,0.413,0.14,0.827,0.216,1.239c0.181,0.997,0.373,1.991,0.573,2.982c0.049,0.242,0.1,0.484,0.15,0.727
			c3.017,14.563,8.17,28.587,15.376,41.677H45.998c-16.576,0.002-30.061-13.483-30.061-30.059v-32.198
			c0-4.402-3.568-7.968-7.968-7.968c-4.402,0-7.968,3.567-7.968,7.968v32.198c0,25.363,20.635,45.998,45.998,45.998h88.411
			c9.295,12.769,20.549,24.022,33.317,33.317v88.411c0,25.363,20.635,45.998,45.998,45.998h84.552
			c25.363,0,45.998-20.635,45.998-45.998v-88.411c12.769-9.295,24.022-20.549,33.317-33.317h88.411
			c25.363,0,45.998-20.635,45.998-45.998v-84.552C512,188.361,491.365,167.726,466.002,167.726z M328.337,466.002
			c0,16.576-13.485,30.061-30.061,30.061h-84.552c-16.576,0-30.061-13.485-30.061-30.061v-78.205
			c13.089,7.206,27.114,12.358,41.677,15.376c0.242,0.05,0.484,0.101,0.727,0.15c0.992,0.201,1.986,0.393,2.982,0.573
			c0.412,0.074,0.826,0.144,1.239,0.216c0.915,0.157,1.83,0.316,2.747,0.457c0.584,0.09,1.174,0.167,1.762,0.25
			c1.262,0.178,2.527,0.342,3.795,0.489c0.841,0.098,1.684,0.194,2.531,0.278c0.605,0.059,1.211,0.109,1.817,0.161
			c0.871,0.075,1.745,0.144,2.621,0.205c0.572,0.039,1.143,0.076,1.716,0.109c0.967,0.055,1.937,0.099,2.909,0.136
			c0.482,0.018,0.964,0.041,1.446,0.055c1.452,0.041,2.908,0.068,4.37,0.068c1.462,0,2.917-0.027,4.37-0.068
			c0.482-0.014,0.965-0.037,1.446-0.055c0.972-0.037,1.942-0.081,2.909-0.136c0.573-0.033,1.144-0.07,1.716-0.109
			c0.875-0.061,1.749-0.13,2.621-0.205c0.606-0.052,1.212-0.102,1.817-0.161c0.846-0.084,1.687-0.181,2.529-0.278
			c1.27-0.147,2.536-0.311,3.799-0.489c0.586-0.083,1.174-0.159,1.758-0.25c0.919-0.141,1.833-0.299,2.747-0.457
			c0.413-0.071,0.827-0.14,1.239-0.216c0.997-0.181,1.991-0.373,2.982-0.573c0.242-0.049,0.484-0.1,0.727-0.15
			c14.562-3.017,28.586-8.17,41.676-15.376V466.002z M387.431,284.052c-0.626,2.933-1.339,5.834-2.153,8.694
			c-0.001,0.002-0.001,0.003-0.002,0.005c-12.698,44.607-47.918,79.826-92.525,92.525c-0.002,0-0.003,0.001-0.005,0.001
			c-2.86,0.814-5.761,1.527-8.694,2.153c-0.53,0.113-1.06,0.225-1.593,0.333c-0.765,0.153-1.532,0.302-2.301,0.442
			c-0.972,0.176-1.946,0.341-2.924,0.496c-0.738,0.118-1.48,0.227-2.223,0.333c-0.981,0.139-1.963,0.27-2.948,0.388
			c-0.524,0.063-1.049,0.124-1.575,0.181c-1.398,0.15-2.8,0.287-4.206,0.393c-0.211,0.016-0.425,0.026-0.636,0.04
			c-1.304,0.092-2.609,0.165-3.918,0.219c-0.406,0.017-0.811,0.033-1.218,0.047c-1.5,0.05-3.003,0.084-4.51,0.084
			s-3.01-0.034-4.51-0.084c-0.406-0.014-0.812-0.03-1.218-0.047c-1.309-0.055-2.616-0.126-3.918-0.219
			c-0.211-0.015-0.425-0.024-0.636-0.04c-1.407-0.106-2.808-0.243-4.206-0.393c-0.526-0.056-1.051-0.118-1.575-0.181
			c-0.985-0.117-1.968-0.249-2.948-0.388c-0.743-0.105-1.484-0.215-2.223-0.333c-0.977-0.155-1.952-0.32-2.924-0.496
			c-0.77-0.14-1.536-0.289-2.301-0.442c-0.532-0.106-1.062-0.22-1.593-0.333c-2.933-0.626-5.834-1.339-8.694-2.153
			c-0.002,0-0.003-0.001-0.005-0.001c-44.608-12.698-79.826-47.918-92.526-92.525c-0.001-0.002-0.001-0.003-0.002-0.005
			c-0.814-2.859-1.527-5.761-2.153-8.694c-0.113-0.53-0.226-1.06-0.333-1.593c-0.153-0.765-0.302-1.532-0.442-2.301
			c-0.176-0.972-0.341-1.946-0.496-2.924c-0.118-0.738-0.227-1.48-0.333-2.223c-0.139-0.981-0.27-1.963-0.388-2.948
			c-0.063-0.524-0.124-1.049-0.181-1.575c-0.15-1.398-0.287-2.8-0.393-4.206c-0.016-0.211-0.026-0.425-0.04-0.636
			c-0.092-1.304-0.165-2.609-0.219-3.918c-0.017-0.406-0.033-0.811-0.047-1.218c-0.05-1.5-0.084-3.003-0.084-4.51
			s0.035-3.01,0.084-4.51c0.014-0.406,0.03-0.812,0.047-1.218c0.055-1.309,0.126-2.616,0.219-3.918
			c0.015-0.211,0.024-0.425,0.04-0.636c0.106-1.407,0.243-2.808,0.393-4.206c0.056-0.526,0.118-1.051,0.181-1.575
			c0.117-0.985,0.249-1.968,0.388-2.948c0.105-0.743,0.215-1.484,0.333-2.223c0.155-0.976,0.32-1.952,0.496-2.924
			c0.14-0.769,0.289-1.536,0.442-2.301c0.106-0.532,0.219-1.062,0.333-1.593c0.626-2.933,1.339-5.835,2.153-8.694
			c0.001-0.002,0.001-0.003,0.002-0.005c12.698-44.608,47.918-79.826,92.526-92.526c0.002,0,0.003-0.001,0.005-0.001
			c2.86-0.814,5.761-1.527,8.694-2.153c0.53-0.113,1.06-0.226,1.593-0.333c0.765-0.153,1.532-0.302,2.301-0.442
			c0.972-0.176,1.946-0.341,2.924-0.496c0.738-0.118,1.48-0.227,2.223-0.333c0.981-0.139,1.963-0.27,2.948-0.388
			c0.524-0.063,1.049-0.124,1.575-0.181c1.398-0.15,2.8-0.287,4.206-0.393c0.211-0.016,0.425-0.025,0.636-0.04
			c1.304-0.092,2.609-0.165,3.918-0.219c0.406-0.017,0.811-0.033,1.218-0.047c1.5-0.05,3.002-0.084,4.51-0.084
			s3.01,0.034,4.51,0.084c0.406,0.014,0.812,0.03,1.218,0.047c1.309,0.055,2.616,0.126,3.918,0.219
			c0.211,0.015,0.425,0.024,0.636,0.04c1.407,0.106,2.808,0.243,4.206,0.393c0.526,0.056,1.051,0.118,1.575,0.181
			c0.985,0.117,1.968,0.249,2.948,0.388c0.743,0.105,1.484,0.215,2.223,0.333c0.977,0.155,1.952,0.32,2.924,0.496
			c0.769,0.14,1.536,0.289,2.301,0.442c0.532,0.106,1.063,0.22,1.593,0.333c2.933,0.626,5.834,1.339,8.694,2.153
			c0.002,0,0.003,0.001,0.005,0.001c44.608,12.698,79.826,47.918,92.525,92.526c0.001,0.002,0.001,0.003,0.002,0.005
			c0.814,2.859,1.527,5.761,2.153,8.694c0.113,0.53,0.226,1.06,0.333,1.593c0.153,0.765,0.302,1.532,0.442,2.301
			c0.176,0.972,0.341,1.946,0.496,2.924c0.118,0.738,0.227,1.48,0.333,2.223c0.139,0.981,0.27,1.963,0.388,2.948
			c0.063,0.524,0.124,1.049,0.181,1.575c0.15,1.398,0.287,2.8,0.393,4.206c0.016,0.211,0.025,0.425,0.04,0.636
			c0.092,1.304,0.165,2.609,0.219,3.918c0.017,0.406,0.033,0.811,0.047,1.218c0.049,1.5,0.084,3.002,0.084,4.51
			s-0.035,3.01-0.084,4.51c-0.014,0.406-0.03,0.812-0.047,1.218c-0.055,1.309-0.126,2.616-0.219,3.918
			c-0.015,0.211-0.024,0.425-0.04,0.636c-0.106,1.407-0.243,2.808-0.393,4.206c-0.056,0.526-0.118,1.051-0.181,1.575
			c-0.118,0.985-0.249,1.968-0.388,2.948c-0.105,0.743-0.215,1.484-0.333,2.223c-0.155,0.976-0.32,1.952-0.496,2.924
			c-0.14,0.769-0.289,1.536-0.442,2.301C387.657,282.992,387.544,283.522,387.431,284.052z M496.063,298.276
			c0,16.576-13.485,30.061-30.061,30.061h-78.205c7.206-13.089,12.358-27.114,15.376-41.677c0.05-0.242,0.101-0.484,0.15-0.727
			c0.201-0.992,0.393-1.986,0.573-2.982c0.074-0.412,0.143-0.826,0.216-1.239c0.157-0.915,0.316-1.83,0.457-2.747
			c0.09-0.585,0.167-1.174,0.25-1.762c0.178-1.262,0.342-2.526,0.489-3.795c0.098-0.843,0.194-1.684,0.278-2.53
			c0.059-0.605,0.109-1.211,0.161-1.817c0.075-0.871,0.144-1.745,0.205-2.621c0.039-0.572,0.076-1.143,0.109-1.716
			c0.055-0.967,0.099-1.937,0.136-2.909c0.018-0.482,0.041-0.964,0.055-1.446c0.041-1.452,0.068-2.908,0.068-4.37
			c0-1.462-0.027-2.917-0.068-4.37c-0.014-0.482-0.037-0.965-0.055-1.446c-0.037-0.972-0.081-1.942-0.136-2.909
			c-0.033-0.573-0.07-1.144-0.109-1.715c-0.061-0.875-0.13-1.749-0.205-2.621c-0.052-0.606-0.102-1.212-0.161-1.817
			c-0.084-0.846-0.181-1.687-0.278-2.529c-0.147-1.27-0.311-2.536-0.489-3.799c-0.083-0.586-0.159-1.174-0.25-1.757
			c-0.141-0.919-0.299-1.833-0.457-2.747c-0.071-0.413-0.14-0.827-0.216-1.239c-0.181-0.997-0.373-1.991-0.573-2.982
			c-0.049-0.242-0.1-0.484-0.15-0.727c-3.017-14.563-8.17-28.587-15.376-41.677h78.205c16.576,0,30.061,13.485,30.061,30.061
			V298.276z"/>
	</g>
</g>
<g>
	<g>
		<path d="M269.337,248.937l-0.329-0.33c-8.033-8.032-20.517-12.278-36.101-12.278c-26.808,0-57.274,12.356-67.914,27.545
			c-5.583,7.971-4.849,14.887-3.25,19.286c3.845,10.577,11.443,19.306,22.585,25.943c4.991,2.974,9.615,6.586,13.776,10.772
			c4.149,4.124,7.763,8.748,10.738,13.743c6.637,11.14,15.365,18.738,25.942,22.583c2.088,0.759,4.258,1.143,6.454,1.143
			c0.001,0,0.001,0,0.003,0c12.021,0,23.657-11.44,31.921-31.39C283.489,301.029,286.696,266.297,269.337,248.937z M258.439,319.854
			c-5.801,14.001-13.19,21.554-17.2,21.553c-0.338,0-0.669-0.061-1.011-0.185c-7.034-2.556-12.988-7.86-17.696-15.764
			c-3.659-6.14-8.098-11.822-13.159-16.854c-5.069-5.099-10.751-9.538-16.889-13.194c-7.903-4.708-13.205-10.662-15.763-17.696
			c-0.166-0.457-0.671-1.847,1.325-4.697c6.862-9.796,31.782-20.752,54.861-20.752c11.106,0,19.925,2.703,24.832,7.61l0.33,0.33
			C269.17,271.307,266.975,299.251,258.439,319.854z"/>
	</g>
</g>
<g>
	<g>
		<path d="M283.865,156.938c-3.993-1.514-8.167-2.281-12.407-2.281c-14.458,0-27.617,9.086-32.744,22.608
			c-3.185,8.401-3.73,20.155-1.42,30.672c2.845,12.965,9.351,21.977,18.317,25.377c2.568,0.974,5.315,1.468,8.166,1.468
			c0.001,0,0.001,0,0.002,0c16.512,0,34.552-17.23,40.415-32.693C311.036,184.038,301.917,163.782,283.865,156.938z
			 M289.291,196.438c-3.745,9.878-16.508,22.407-25.515,22.406c-0.925,0-1.749-0.142-2.517-0.432
			c-3.654-1.386-6.794-6.579-8.401-13.893c-1.63-7.429-1.327-16.111,0.756-21.606c2.794-7.369,9.965-12.321,17.843-12.321
			c2.303,0,4.577,0.419,6.757,1.246C288.051,175.568,293.019,186.603,289.291,196.438z"/>
	</g>
</g>
<g>
	<g>
		<path d="M226.178,189.688c-2.923-14.469-15.745-24.97-30.488-24.97c-2.065,0-4.147,0.208-6.187,0.62
			c-16.823,3.398-27.746,19.851-24.349,36.676c2.824,13.978,17.628,34.282,34.399,34.284c0.001,0,0.002,0,0.003,0
			c1.365,0,2.728-0.135,4.052-0.403C221.39,232.304,229.433,205.802,226.178,189.688z M200.453,220.275
			c-0.291,0.06-0.584,0.087-0.898,0.087c-6.477-0.001-16.831-11.858-18.78-21.503c-1.657-8.212,3.673-16.241,11.884-17.899
			c1.002-0.202,2.022-0.305,3.032-0.305c7.189,0,13.44,5.126,14.867,12.19C212.63,203.104,206.775,218.998,200.453,220.275z"/>
	</g>
</g>
<g>
	<g>
		<path d="M361.007,234.078c-5.127-13.523-18.287-22.608-32.745-22.608c-4.239,0-8.414,0.768-12.407,2.282
			c-17.28,6.551-38.546,29.268-31.224,48.583c5.525,14.57,24.297,19.74,38.693,19.74c6.446,0,12.448-0.984,17.355-2.845
			C358.733,272.387,367.851,252.132,361.007,234.078z M335.03,264.33c-3.078,1.168-7.235,1.809-11.706,1.809
			c-11.52,0-21.748-4.064-23.793-9.454c-3.089-8.151,10.462-23.667,21.974-28.032c2.182-0.827,4.455-1.246,6.757-1.246
			c7.878,0,15.05,4.952,17.844,12.321C349.835,249.566,344.866,260.6,335.03,264.33z"/>
	</g>
</g>
<g>
	<g>
		<path d="M328.256,291.765c-2.327-0.47-4.876-0.709-7.572-0.709c-16.45,0-35.581,8.16-38.636,23.278
			c-3.689,18.258,17.952,35.236,33.884,38.454c2.039,0.412,4.12,0.62,6.186,0.62c14.744,0,27.565-10.501,30.488-24.971
			C356.002,311.616,345.079,295.163,328.256,291.765z M336.984,325.285c-1.427,7.062-7.678,12.19-14.867,12.19
			c-1.009,0-2.029-0.103-3.031-0.305c-10.26-2.072-22.671-13.475-21.417-19.678c1.07-5.297,12.47-10.498,23.015-10.498
			c1.639,0,3.125,0.133,4.416,0.393C333.311,309.045,338.642,317.074,336.984,325.285z"/>
	</g>
</g>
</svg>